<mxfile host="app.diagrams.net" modified="2021-09-06T01:02:50.603Z" agent="5.0 (Macintosh; Intel Mac OS X 10_15_7) AppleWebKit/537.36 (KHTML, like Gecko) Chrome/93.0.4577.63 Safari/537.36" etag="iKMKwRNgStBz7qejQ3Sf" version="15.0.2" type="github" pages="4">
  <diagram id="uVko9VTxaAUNqRkBbk-y" name="Frame">
    <mxGraphModel dx="3245" dy="1910" grid="1" gridSize="10" guides="1" tooltips="1" connect="1" arrows="1" fold="1" page="1" pageScale="1" pageWidth="3300" pageHeight="4681" math="0" shadow="0">
      <root>
        <mxCell id="87zoMCgWx7IZLiXA-lgk-0" />
        <mxCell id="87zoMCgWx7IZLiXA-lgk-1" parent="87zoMCgWx7IZLiXA-lgk-0" />
        <mxCell id="7CMmXAUzR_UUAr6WcVvc-8" value="" style="group" parent="87zoMCgWx7IZLiXA-lgk-1" vertex="1" connectable="0">
          <mxGeometry x="60" y="40" width="790" height="777" as="geometry" />
        </mxCell>
        <mxCell id="hPYMtQA6v_j6fi8OM6DN-25" value="编码器(单例)&lt;br&gt;message -&amp;gt; buffer" style="shape=callout;rounded=1;whiteSpace=wrap;html=1;perimeter=calloutPerimeter;glass=0;sketch=1;gradientDirection=south;position2=0;fontFamily=Nunito;fontSource=https%3A%2F%2Ffonts.googleapis.com%2Fcss%3Ffamily%3DNunito;" parent="7CMmXAUzR_UUAr6WcVvc-8" vertex="1">
          <mxGeometry x="660" y="180" width="130" height="70" as="geometry" />
        </mxCell>
        <mxCell id="7CMmXAUzR_UUAr6WcVvc-0" value="ChunkFetchRequestHandler&lt;br&gt;根据config，独立EventLoop专门处理ChunkFetchRequest" style="rounded=1;whiteSpace=wrap;html=1;shadow=0;sketch=1;fontFamily=Nunito;fontSource=https%3A%2F%2Ffonts.googleapis.com%2Fcss%3Ffamily%3DNunito;fillColor=#b0e3e6;strokeColor=#0e8088;" parent="7CMmXAUzR_UUAr6WcVvc-8" vertex="1">
          <mxGeometry x="170" y="640" width="480" height="60" as="geometry" />
        </mxCell>
        <mxCell id="hPYMtQA6v_j6fi8OM6DN-1" value="Network Channel" style="rounded=0;whiteSpace=wrap;html=1;fontFamily=Nunito;fontSource=https%3A%2F%2Ffonts.googleapis.com%2Fcss%3Ffamily%3DNunito;fillColor=#eeeeee;sketch=1;strokeColor=#36393d;" parent="7CMmXAUzR_UUAr6WcVvc-8" vertex="1">
          <mxGeometry x="170" width="480" height="60" as="geometry" />
        </mxCell>
        <mxCell id="hPYMtQA6v_j6fi8OM6DN-2" value="TransportFrameDecoder" style="rounded=0;whiteSpace=wrap;html=1;sketch=1;fontFamily=Nunito;fontSource=https%3A%2F%2Ffonts.googleapis.com%2Fcss%3Ffamily%3DNunito;fillColor=#d5e8d4;strokeColor=#82b366;" parent="7CMmXAUzR_UUAr6WcVvc-8" vertex="1">
          <mxGeometry x="170" y="110" width="200" height="60" as="geometry" />
        </mxCell>
        <mxCell id="hPYMtQA6v_j6fi8OM6DN-3" value="MessageDecoder" style="rounded=0;whiteSpace=wrap;html=1;fillColor=#dae8fc;strokeColor=#6c8ebf;sketch=1;fontFamily=Nunito;fontSource=https%3A%2F%2Ffonts.googleapis.com%2Fcss%3Ffamily%3DNunito;fillStyle=auto;" parent="7CMmXAUzR_UUAr6WcVvc-8" vertex="1">
          <mxGeometry x="170" y="220" width="200" height="60" as="geometry" />
        </mxCell>
        <mxCell id="hPYMtQA6v_j6fi8OM6DN-4" value="MessageEncoder" style="rounded=0;whiteSpace=wrap;html=1;fillColor=#dae8fc;strokeColor=#6c8ebf;sketch=1;fontFamily=Nunito;fontSource=https%3A%2F%2Ffonts.googleapis.com%2Fcss%3Ffamily%3DNunito;" parent="7CMmXAUzR_UUAr6WcVvc-8" vertex="1">
          <mxGeometry x="450" y="220" width="200" height="60" as="geometry" />
        </mxCell>
        <mxCell id="hPYMtQA6v_j6fi8OM6DN-5" value="IdleStateHandler" style="rounded=0;whiteSpace=wrap;html=1;glass=0;sketch=1;fillStyle=zigzag;fontFamily=Nunito;fontSource=https%3A%2F%2Ffonts.googleapis.com%2Fcss%3Ffamily%3DNunito;fillColor=#f5f5f5;strokeColor=#666666;fontColor=#333333;" parent="7CMmXAUzR_UUAr6WcVvc-8" vertex="1">
          <mxGeometry x="170" y="330" width="480" height="60" as="geometry" />
        </mxCell>
        <mxCell id="hPYMtQA6v_j6fi8OM6DN-6" value="TransportChannelHandler" style="rounded=1;whiteSpace=wrap;html=1;sketch=1;fontFamily=Nunito;fontSource=https%3A%2F%2Ffonts.googleapis.com%2Fcss%3Ffamily%3DNunito;fillColor=#ffe6cc;strokeColor=#d79b00;" parent="7CMmXAUzR_UUAr6WcVvc-8" vertex="1">
          <mxGeometry x="170" y="440" width="480" height="150" as="geometry" />
        </mxCell>
        <mxCell id="hPYMtQA6v_j6fi8OM6DN-8" value="TransportResponseHandler" style="rounded=1;whiteSpace=wrap;html=1;fillColor=#e1d5e7;strokeColor=#9673a6;sketch=1;fontFamily=Nunito;fontSource=https%3A%2F%2Ffonts.googleapis.com%2Fcss%3Ffamily%3DNunito;" parent="7CMmXAUzR_UUAr6WcVvc-8" vertex="1">
          <mxGeometry x="500" y="530" width="150" height="50" as="geometry" />
        </mxCell>
        <mxCell id="hPYMtQA6v_j6fi8OM6DN-9" value="" style="endArrow=classic;html=1;fontFamily=Nunito;fontSource=https%3A%2F%2Ffonts.googleapis.com%2Fcss%3Ffamily%3DNunito;" parent="7CMmXAUzR_UUAr6WcVvc-8" edge="1">
          <mxGeometry x="30" width="50" height="50" as="geometry">
            <mxPoint x="269.5" y="60" as="sourcePoint" />
            <mxPoint x="269.5" y="110" as="targetPoint" />
          </mxGeometry>
        </mxCell>
        <mxCell id="hPYMtQA6v_j6fi8OM6DN-17" value="Receive" style="edgeLabel;html=1;align=center;verticalAlign=middle;resizable=0;points=[];fontFamily=Nunito;fontSource=https%3A%2F%2Ffonts.googleapis.com%2Fcss%3Ffamily%3DNunito;" parent="hPYMtQA6v_j6fi8OM6DN-9" vertex="1" connectable="0">
          <mxGeometry x="-0.04" y="1" relative="1" as="geometry">
            <mxPoint as="offset" />
          </mxGeometry>
        </mxCell>
        <mxCell id="hPYMtQA6v_j6fi8OM6DN-10" value="" style="endArrow=classic;html=1;fontFamily=Nunito;fontSource=https%3A%2F%2Ffonts.googleapis.com%2Fcss%3Ffamily%3DNunito;" parent="7CMmXAUzR_UUAr6WcVvc-8" edge="1">
          <mxGeometry x="30" width="50" height="50" as="geometry">
            <mxPoint x="269.5" y="170" as="sourcePoint" />
            <mxPoint x="269.5" y="220" as="targetPoint" />
          </mxGeometry>
        </mxCell>
        <mxCell id="hPYMtQA6v_j6fi8OM6DN-11" value="" style="endArrow=classic;html=1;fontFamily=Nunito;fontSource=https%3A%2F%2Ffonts.googleapis.com%2Fcss%3Ffamily%3DNunito;" parent="7CMmXAUzR_UUAr6WcVvc-8" edge="1">
          <mxGeometry x="30" width="50" height="50" as="geometry">
            <mxPoint x="269.5" y="280" as="sourcePoint" />
            <mxPoint x="269.5" y="330" as="targetPoint" />
          </mxGeometry>
        </mxCell>
        <mxCell id="hPYMtQA6v_j6fi8OM6DN-12" value="" style="endArrow=classic;html=1;fontFamily=Nunito;fontSource=https%3A%2F%2Ffonts.googleapis.com%2Fcss%3Ffamily%3DNunito;" parent="7CMmXAUzR_UUAr6WcVvc-8" edge="1">
          <mxGeometry x="30" width="50" height="50" as="geometry">
            <mxPoint x="269.5" y="390" as="sourcePoint" />
            <mxPoint x="269.5" y="440" as="targetPoint" />
          </mxGeometry>
        </mxCell>
        <mxCell id="hPYMtQA6v_j6fi8OM6DN-13" value="" style="endArrow=classic;html=1;fontFamily=Nunito;fontSource=https%3A%2F%2Ffonts.googleapis.com%2Fcss%3Ffamily%3DNunito;" parent="7CMmXAUzR_UUAr6WcVvc-8" edge="1">
          <mxGeometry x="30" width="50" height="50" as="geometry">
            <mxPoint x="549.5" y="330" as="sourcePoint" />
            <mxPoint x="549.5" y="280" as="targetPoint" />
          </mxGeometry>
        </mxCell>
        <mxCell id="hPYMtQA6v_j6fi8OM6DN-14" value="" style="endArrow=classic;html=1;fontFamily=Nunito;fontSource=https%3A%2F%2Ffonts.googleapis.com%2Fcss%3Ffamily%3DNunito;" parent="7CMmXAUzR_UUAr6WcVvc-8" edge="1">
          <mxGeometry x="30" width="50" height="50" as="geometry">
            <mxPoint x="549.5" y="440" as="sourcePoint" />
            <mxPoint x="549.5" y="390" as="targetPoint" />
          </mxGeometry>
        </mxCell>
        <mxCell id="hPYMtQA6v_j6fi8OM6DN-15" value="" style="endArrow=classic;html=1;entryX=0.792;entryY=1.033;entryDx=0;entryDy=0;entryPerimeter=0;exitX=0.5;exitY=0;exitDx=0;exitDy=0;fontFamily=Nunito;fontSource=https%3A%2F%2Ffonts.googleapis.com%2Fcss%3Ffamily%3DNunito;" parent="7CMmXAUzR_UUAr6WcVvc-8" source="hPYMtQA6v_j6fi8OM6DN-4" target="hPYMtQA6v_j6fi8OM6DN-1" edge="1">
          <mxGeometry x="30" width="50" height="50" as="geometry">
            <mxPoint x="549.5" y="205" as="sourcePoint" />
            <mxPoint x="549.5" y="75" as="targetPoint" />
          </mxGeometry>
        </mxCell>
        <mxCell id="hPYMtQA6v_j6fi8OM6DN-19" value="Send" style="edgeLabel;html=1;align=center;verticalAlign=middle;resizable=0;points=[];fontFamily=Nunito;fontSource=https%3A%2F%2Ffonts.googleapis.com%2Fcss%3Ffamily%3DNunito;" parent="hPYMtQA6v_j6fi8OM6DN-15" vertex="1" connectable="0">
          <mxGeometry x="0.2024" y="-2" relative="1" as="geometry">
            <mxPoint as="offset" />
          </mxGeometry>
        </mxCell>
        <mxCell id="hPYMtQA6v_j6fi8OM6DN-16" value="" style="endArrow=classic;html=1;fontFamily=Nunito;fontSource=https%3A%2F%2Ffonts.googleapis.com%2Fcss%3Ffamily%3DNunito;" parent="7CMmXAUzR_UUAr6WcVvc-8" edge="1">
          <mxGeometry x="30" y="110" width="50" height="50" as="geometry">
            <mxPoint x="270" y="700" as="sourcePoint" />
            <mxPoint x="550" y="702" as="targetPoint" />
            <Array as="points">
              <mxPoint x="270" y="777" />
              <mxPoint x="550" y="777" />
            </Array>
          </mxGeometry>
        </mxCell>
        <mxCell id="7CMmXAUzR_UUAr6WcVvc-9" style="edgeStyle=orthogonalEdgeStyle;rounded=0;orthogonalLoop=1;jettySize=auto;html=1;exitX=1;exitY=0.5;exitDx=0;exitDy=0;entryX=0;entryY=0.5;entryDx=0;entryDy=0;fontFamily=Nunito;fontSource=https%3A%2F%2Ffonts.googleapis.com%2Fcss%3Ffamily%3DNunito;" parent="7CMmXAUzR_UUAr6WcVvc-8" source="hPYMtQA6v_j6fi8OM6DN-18" target="7CMmXAUzR_UUAr6WcVvc-4" edge="1">
          <mxGeometry relative="1" as="geometry" />
        </mxCell>
        <mxCell id="hPYMtQA6v_j6fi8OM6DN-18" value="TransportRequestHandler" style="rounded=1;whiteSpace=wrap;html=1;fillColor=#e1d5e7;strokeColor=#9673a6;sketch=1;fontFamily=Nunito;fontSource=https%3A%2F%2Ffonts.googleapis.com%2Fcss%3Ffamily%3DNunito;" parent="7CMmXAUzR_UUAr6WcVvc-8" vertex="1">
          <mxGeometry x="170" y="530" width="150" height="50" as="geometry" />
        </mxCell>
        <mxCell id="hPYMtQA6v_j6fi8OM6DN-20" value="处理粘包、半包" style="shape=callout;rounded=1;whiteSpace=wrap;html=1;perimeter=calloutPerimeter;glass=0;sketch=1;gradientDirection=south;position2=1;fontFamily=Nunito;fontSource=https%3A%2F%2Ffonts.googleapis.com%2Fcss%3Ffamily%3DNunito;" parent="7CMmXAUzR_UUAr6WcVvc-8" vertex="1">
          <mxGeometry x="30" y="70" width="130" height="70" as="geometry" />
        </mxCell>
        <mxCell id="hPYMtQA6v_j6fi8OM6DN-22" value="解码器(单例)&lt;br&gt;buffer -&amp;gt; message" style="shape=callout;rounded=1;whiteSpace=wrap;html=1;perimeter=calloutPerimeter;glass=0;sketch=1;gradientDirection=south;position2=1;fontFamily=Nunito;fontSource=https%3A%2F%2Ffonts.googleapis.com%2Fcss%3Ffamily%3DNunito;" parent="7CMmXAUzR_UUAr6WcVvc-8" vertex="1">
          <mxGeometry x="30" y="180" width="130" height="70" as="geometry" />
        </mxCell>
        <mxCell id="hPYMtQA6v_j6fi8OM6DN-23" value="心跳存活检测" style="shape=callout;rounded=1;whiteSpace=wrap;html=1;perimeter=calloutPerimeter;glass=0;sketch=1;gradientDirection=south;position2=1;fontFamily=Nunito;fontSource=https%3A%2F%2Ffonts.googleapis.com%2Fcss%3Ffamily%3DNunito;" parent="7CMmXAUzR_UUAr6WcVvc-8" vertex="1">
          <mxGeometry x="30" y="290" width="130" height="70" as="geometry" />
        </mxCell>
        <mxCell id="hPYMtQA6v_j6fi8OM6DN-24" value="业务处理" style="shape=callout;rounded=1;whiteSpace=wrap;html=1;perimeter=calloutPerimeter;glass=0;sketch=1;gradientDirection=south;position2=1;fontFamily=Nunito;fontSource=https%3A%2F%2Ffonts.googleapis.com%2Fcss%3Ffamily%3DNunito;" parent="7CMmXAUzR_UUAr6WcVvc-8" vertex="1">
          <mxGeometry x="30" y="400" width="130" height="70" as="geometry" />
        </mxCell>
        <mxCell id="hPYMtQA6v_j6fi8OM6DN-26" value="处理请求&lt;br&gt;RequestMessage" style="shape=callout;whiteSpace=wrap;html=1;perimeter=calloutPerimeter;rounded=0;glass=0;sketch=1;fontFamily=Nunito;fontSource=https%3A%2F%2Ffonts.googleapis.com%2Fcss%3Ffamily%3DNunito;gradientDirection=south;position2=0.67;" parent="7CMmXAUzR_UUAr6WcVvc-8" vertex="1">
          <mxGeometry x="180" y="450" width="120" height="80" as="geometry" />
        </mxCell>
        <mxCell id="hPYMtQA6v_j6fi8OM6DN-51" value="处理响应&lt;br&gt;ResponseMessage" style="shape=callout;whiteSpace=wrap;html=1;perimeter=calloutPerimeter;rounded=0;glass=0;sketch=1;fontFamily=Nunito;fontSource=https%3A%2F%2Ffonts.googleapis.com%2Fcss%3Ffamily%3DNunito;gradientDirection=south;" parent="7CMmXAUzR_UUAr6WcVvc-8" vertex="1">
          <mxGeometry x="520" y="450" width="120" height="80" as="geometry" />
        </mxCell>
        <mxCell id="7CMmXAUzR_UUAr6WcVvc-1" value="" style="endArrow=classic;html=1;fontFamily=Nunito;fontSource=https%3A%2F%2Ffonts.googleapis.com%2Fcss%3Ffamily%3DNunito;" parent="7CMmXAUzR_UUAr6WcVvc-8" edge="1">
          <mxGeometry x="29.5" y="200" width="50" height="50" as="geometry">
            <mxPoint x="269" y="590" as="sourcePoint" />
            <mxPoint x="269" y="640" as="targetPoint" />
          </mxGeometry>
        </mxCell>
        <mxCell id="7CMmXAUzR_UUAr6WcVvc-2" value="" style="endArrow=classic;html=1;fontFamily=Nunito;fontSource=https%3A%2F%2Ffonts.googleapis.com%2Fcss%3Ffamily%3DNunito;" parent="7CMmXAUzR_UUAr6WcVvc-8" edge="1">
          <mxGeometry x="310.5" y="200" width="50" height="50" as="geometry">
            <mxPoint x="550" y="640" as="sourcePoint" />
            <mxPoint x="550" y="590" as="targetPoint" />
          </mxGeometry>
        </mxCell>
        <mxCell id="7CMmXAUzR_UUAr6WcVvc-3" value="与TransportChannelHandler的内置ChunkFetchRequestHandler不共存，&lt;br&gt;二选一，默认内置" style="shape=callout;whiteSpace=wrap;html=1;perimeter=calloutPerimeter;shadow=0;sketch=1;fontFamily=Nunito;fontSource=https%3A%2F%2Ffonts.googleapis.com%2Fcss%3Ffamily%3DNunito;position2=0.92;rounded=1;" parent="7CMmXAUzR_UUAr6WcVvc-8" vertex="1">
          <mxGeometry y="530" width="160" height="150" as="geometry" />
        </mxCell>
        <mxCell id="7CMmXAUzR_UUAr6WcVvc-4" value="内置&lt;br&gt;ChunkFetchRequestHandler" style="rounded=1;whiteSpace=wrap;html=1;shadow=0;sketch=1;fontFamily=Nunito;fontSource=https%3A%2F%2Ffonts.googleapis.com%2Fcss%3Ffamily%3DNunito;fillColor=#b0e3e6;strokeColor=#0e8088;" parent="7CMmXAUzR_UUAr6WcVvc-8" vertex="1">
          <mxGeometry x="335" y="530" width="150" height="50" as="geometry" />
        </mxCell>
        <mxCell id="hCcfKXrb2EvXr7YopFnI-1" value="" style="group" vertex="1" connectable="0" parent="87zoMCgWx7IZLiXA-lgk-1">
          <mxGeometry x="270" y="940" width="560" height="240" as="geometry" />
        </mxCell>
        <mxCell id="hPYMtQA6v_j6fi8OM6DN-56" value="" style="shape=partialRectangle;whiteSpace=wrap;html=1;bottom=1;right=1;left=1;top=0;fillColor=none;routingCenterX=-0.5;rounded=0;glass=0;sketch=0;fontFamily=Nunito;fontSource=https%3A%2F%2Ffonts.googleapis.com%2Fcss%3Ffamily%3DNunito;" parent="hCcfKXrb2EvXr7YopFnI-1" vertex="1">
          <mxGeometry x="20" y="160" width="20" height="10" as="geometry" />
        </mxCell>
        <mxCell id="hPYMtQA6v_j6fi8OM6DN-58" value="" style="shape=partialRectangle;whiteSpace=wrap;html=1;bottom=1;right=1;left=1;top=0;fillColor=none;routingCenterX=-0.5;rounded=0;glass=0;sketch=0;fontFamily=Nunito;fontSource=https%3A%2F%2Ffonts.googleapis.com%2Fcss%3Ffamily%3DNunito;" parent="hCcfKXrb2EvXr7YopFnI-1" vertex="1">
          <mxGeometry x="40" y="160" width="20" height="10" as="geometry" />
        </mxCell>
        <mxCell id="hPYMtQA6v_j6fi8OM6DN-59" value="" style="shape=partialRectangle;whiteSpace=wrap;html=1;bottom=1;right=1;left=1;top=0;fillColor=none;routingCenterX=-0.5;rounded=0;glass=0;sketch=0;fontFamily=Nunito;fontSource=https%3A%2F%2Ffonts.googleapis.com%2Fcss%3Ffamily%3DNunito;" parent="hCcfKXrb2EvXr7YopFnI-1" vertex="1">
          <mxGeometry x="60" y="160" width="20" height="10" as="geometry" />
        </mxCell>
        <mxCell id="hPYMtQA6v_j6fi8OM6DN-60" value="" style="shape=partialRectangle;whiteSpace=wrap;html=1;bottom=1;right=1;left=1;top=0;fillColor=none;routingCenterX=-0.5;rounded=0;glass=0;sketch=0;fontFamily=Nunito;fontSource=https%3A%2F%2Ffonts.googleapis.com%2Fcss%3Ffamily%3DNunito;" parent="hCcfKXrb2EvXr7YopFnI-1" vertex="1">
          <mxGeometry x="80" y="160" width="20" height="10" as="geometry" />
        </mxCell>
        <mxCell id="hPYMtQA6v_j6fi8OM6DN-61" value="" style="shape=partialRectangle;whiteSpace=wrap;html=1;bottom=1;right=1;left=1;top=0;fillColor=none;routingCenterX=-0.5;rounded=0;glass=0;sketch=0;fontFamily=Nunito;fontSource=https%3A%2F%2Ffonts.googleapis.com%2Fcss%3Ffamily%3DNunito;" parent="hCcfKXrb2EvXr7YopFnI-1" vertex="1">
          <mxGeometry x="100" y="160" width="20" height="10" as="geometry" />
        </mxCell>
        <mxCell id="hPYMtQA6v_j6fi8OM6DN-62" value="" style="shape=partialRectangle;whiteSpace=wrap;html=1;bottom=1;right=1;left=1;top=0;fillColor=none;routingCenterX=-0.5;rounded=0;glass=0;sketch=0;fontFamily=Nunito;fontSource=https%3A%2F%2Ffonts.googleapis.com%2Fcss%3Ffamily%3DNunito;" parent="hCcfKXrb2EvXr7YopFnI-1" vertex="1">
          <mxGeometry x="120" y="160" width="20" height="10" as="geometry" />
        </mxCell>
        <mxCell id="hPYMtQA6v_j6fi8OM6DN-63" value="" style="shape=partialRectangle;whiteSpace=wrap;html=1;bottom=1;right=1;left=1;top=0;fillColor=none;routingCenterX=-0.5;rounded=0;glass=0;sketch=0;fontFamily=Nunito;fontSource=https%3A%2F%2Ffonts.googleapis.com%2Fcss%3Ffamily%3DNunito;" parent="hCcfKXrb2EvXr7YopFnI-1" vertex="1">
          <mxGeometry x="140" y="160" width="20" height="10" as="geometry" />
        </mxCell>
        <mxCell id="hPYMtQA6v_j6fi8OM6DN-64" value="" style="shape=partialRectangle;whiteSpace=wrap;html=1;bottom=1;right=1;left=1;top=0;fillColor=none;routingCenterX=-0.5;rounded=0;glass=0;sketch=0;fontFamily=Nunito;fontSource=https%3A%2F%2Ffonts.googleapis.com%2Fcss%3Ffamily%3DNunito;" parent="hCcfKXrb2EvXr7YopFnI-1" vertex="1">
          <mxGeometry x="160" y="160" width="20" height="10" as="geometry" />
        </mxCell>
        <mxCell id="hPYMtQA6v_j6fi8OM6DN-65" value="" style="shape=partialRectangle;whiteSpace=wrap;html=1;bottom=1;right=1;left=1;top=0;fillColor=none;routingCenterX=-0.5;rounded=0;glass=0;sketch=0;fontFamily=Nunito;fontSource=https%3A%2F%2Ffonts.googleapis.com%2Fcss%3Ffamily%3DNunito;" parent="hCcfKXrb2EvXr7YopFnI-1" vertex="1">
          <mxGeometry x="180" y="160" width="20" height="10" as="geometry" />
        </mxCell>
        <mxCell id="hPYMtQA6v_j6fi8OM6DN-66" value="" style="shape=partialRectangle;whiteSpace=wrap;html=1;bottom=1;right=1;left=1;top=0;fillColor=none;routingCenterX=-0.5;rounded=0;glass=0;sketch=0;fontFamily=Nunito;fontSource=https%3A%2F%2Ffonts.googleapis.com%2Fcss%3Ffamily%3DNunito;" parent="hCcfKXrb2EvXr7YopFnI-1" vertex="1">
          <mxGeometry x="200" y="160" width="20" height="10" as="geometry" />
        </mxCell>
        <mxCell id="hPYMtQA6v_j6fi8OM6DN-67" value="" style="shape=partialRectangle;whiteSpace=wrap;html=1;bottom=1;right=1;left=1;top=0;fillColor=none;routingCenterX=-0.5;rounded=0;glass=0;sketch=0;fontFamily=Nunito;fontSource=https%3A%2F%2Ffonts.googleapis.com%2Fcss%3Ffamily%3DNunito;" parent="hCcfKXrb2EvXr7YopFnI-1" vertex="1">
          <mxGeometry x="220" y="160" width="20" height="10" as="geometry" />
        </mxCell>
        <mxCell id="hPYMtQA6v_j6fi8OM6DN-68" value="" style="shape=partialRectangle;whiteSpace=wrap;html=1;bottom=1;right=1;left=1;top=0;fillColor=none;routingCenterX=-0.5;rounded=0;glass=0;sketch=0;fontFamily=Nunito;fontSource=https%3A%2F%2Ffonts.googleapis.com%2Fcss%3Ffamily%3DNunito;" parent="hCcfKXrb2EvXr7YopFnI-1" vertex="1">
          <mxGeometry x="240" y="160" width="20" height="10" as="geometry" />
        </mxCell>
        <mxCell id="hPYMtQA6v_j6fi8OM6DN-69" value="8" style="shape=partialRectangle;whiteSpace=wrap;html=1;bottom=1;right=1;left=1;top=0;fillColor=none;routingCenterX=-0.5;rounded=0;glass=0;sketch=0;fontFamily=Nunito;fontSource=https%3A%2F%2Ffonts.googleapis.com%2Fcss%3Ffamily%3DNunito;direction=west;" parent="hCcfKXrb2EvXr7YopFnI-1" vertex="1">
          <mxGeometry x="20" y="130" width="160" height="30" as="geometry" />
        </mxCell>
        <mxCell id="hPYMtQA6v_j6fi8OM6DN-70" value="1" style="shape=partialRectangle;whiteSpace=wrap;html=1;bottom=1;right=1;left=1;top=0;fillColor=none;routingCenterX=-0.5;rounded=0;glass=0;sketch=0;fontFamily=Nunito;fontSource=https%3A%2F%2Ffonts.googleapis.com%2Fcss%3Ffamily%3DNunito;direction=west;" parent="hCcfKXrb2EvXr7YopFnI-1" vertex="1">
          <mxGeometry x="180" y="130" width="20" height="30" as="geometry" />
        </mxCell>
        <mxCell id="hPYMtQA6v_j6fi8OM6DN-71" value="" style="shape=partialRectangle;whiteSpace=wrap;html=1;bottom=1;right=1;left=1;top=0;fillColor=none;routingCenterX=-0.5;rounded=0;glass=0;sketch=0;fontFamily=Nunito;fontSource=https%3A%2F%2Ffonts.googleapis.com%2Fcss%3Ffamily%3DNunito;" parent="hCcfKXrb2EvXr7YopFnI-1" vertex="1">
          <mxGeometry x="260" y="160" width="20" height="10" as="geometry" />
        </mxCell>
        <mxCell id="hPYMtQA6v_j6fi8OM6DN-72" value="" style="shape=partialRectangle;whiteSpace=wrap;html=1;bottom=1;right=1;left=1;top=0;fillColor=none;routingCenterX=-0.5;rounded=0;glass=0;sketch=0;fontFamily=Nunito;fontSource=https%3A%2F%2Ffonts.googleapis.com%2Fcss%3Ffamily%3DNunito;" parent="hCcfKXrb2EvXr7YopFnI-1" vertex="1">
          <mxGeometry x="280" y="160" width="20" height="10" as="geometry" />
        </mxCell>
        <mxCell id="hPYMtQA6v_j6fi8OM6DN-73" value="" style="shape=partialRectangle;whiteSpace=wrap;html=1;bottom=1;right=1;left=1;top=0;fillColor=none;routingCenterX=-0.5;rounded=0;glass=0;sketch=0;fontFamily=Nunito;fontSource=https%3A%2F%2Ffonts.googleapis.com%2Fcss%3Ffamily%3DNunito;" parent="hCcfKXrb2EvXr7YopFnI-1" vertex="1">
          <mxGeometry x="300" y="160" width="20" height="10" as="geometry" />
        </mxCell>
        <mxCell id="hPYMtQA6v_j6fi8OM6DN-74" value="" style="shape=partialRectangle;whiteSpace=wrap;html=1;bottom=1;right=1;left=1;top=0;fillColor=none;routingCenterX=-0.5;rounded=0;glass=0;sketch=0;fontFamily=Nunito;fontSource=https%3A%2F%2Ffonts.googleapis.com%2Fcss%3Ffamily%3DNunito;" parent="hCcfKXrb2EvXr7YopFnI-1" vertex="1">
          <mxGeometry x="320" y="160" width="20" height="10" as="geometry" />
        </mxCell>
        <mxCell id="hPYMtQA6v_j6fi8OM6DN-75" value="" style="shape=partialRectangle;whiteSpace=wrap;html=1;bottom=1;right=1;left=1;top=0;fillColor=none;routingCenterX=-0.5;rounded=0;glass=0;sketch=0;fontFamily=Nunito;fontSource=https%3A%2F%2Ffonts.googleapis.com%2Fcss%3Ffamily%3DNunito;" parent="hCcfKXrb2EvXr7YopFnI-1" vertex="1">
          <mxGeometry x="340" y="160" width="20" height="10" as="geometry" />
        </mxCell>
        <mxCell id="hPYMtQA6v_j6fi8OM6DN-76" value="" style="shape=partialRectangle;whiteSpace=wrap;html=1;bottom=1;right=1;left=1;top=0;fillColor=none;routingCenterX=-0.5;rounded=0;glass=0;sketch=0;fontFamily=Nunito;fontSource=https%3A%2F%2Ffonts.googleapis.com%2Fcss%3Ffamily%3DNunito;" parent="hCcfKXrb2EvXr7YopFnI-1" vertex="1">
          <mxGeometry x="360" y="160" width="20" height="10" as="geometry" />
        </mxCell>
        <mxCell id="hPYMtQA6v_j6fi8OM6DN-77" value="" style="shape=partialRectangle;whiteSpace=wrap;html=1;bottom=1;right=1;left=1;top=0;fillColor=none;routingCenterX=-0.5;rounded=0;glass=0;sketch=0;fontFamily=Nunito;fontSource=https%3A%2F%2Ffonts.googleapis.com%2Fcss%3Ffamily%3DNunito;" parent="hCcfKXrb2EvXr7YopFnI-1" vertex="1">
          <mxGeometry x="380" y="160" width="20" height="10" as="geometry" />
        </mxCell>
        <mxCell id="hPYMtQA6v_j6fi8OM6DN-78" value="" style="shape=partialRectangle;whiteSpace=wrap;html=1;bottom=1;right=1;left=1;top=0;fillColor=none;routingCenterX=-0.5;rounded=0;glass=0;sketch=0;fontFamily=Nunito;fontSource=https%3A%2F%2Ffonts.googleapis.com%2Fcss%3Ffamily%3DNunito;" parent="hCcfKXrb2EvXr7YopFnI-1" vertex="1">
          <mxGeometry x="400" y="160" width="20" height="10" as="geometry" />
        </mxCell>
        <mxCell id="hPYMtQA6v_j6fi8OM6DN-79" value="" style="shape=partialRectangle;whiteSpace=wrap;html=1;bottom=1;right=1;left=1;top=0;fillColor=none;routingCenterX=-0.5;rounded=0;glass=0;sketch=0;fontFamily=Nunito;fontSource=https%3A%2F%2Ffonts.googleapis.com%2Fcss%3Ffamily%3DNunito;" parent="hCcfKXrb2EvXr7YopFnI-1" vertex="1">
          <mxGeometry x="420" y="160" width="20" height="10" as="geometry" />
        </mxCell>
        <mxCell id="hPYMtQA6v_j6fi8OM6DN-80" value="" style="shape=partialRectangle;whiteSpace=wrap;html=1;bottom=1;right=1;left=1;top=0;fillColor=none;routingCenterX=-0.5;rounded=0;glass=0;sketch=0;fontFamily=Nunito;fontSource=https%3A%2F%2Ffonts.googleapis.com%2Fcss%3Ffamily%3DNunito;" parent="hCcfKXrb2EvXr7YopFnI-1" vertex="1">
          <mxGeometry x="440" y="160" width="20" height="10" as="geometry" />
        </mxCell>
        <mxCell id="hPYMtQA6v_j6fi8OM6DN-81" value="" style="shape=partialRectangle;whiteSpace=wrap;html=1;bottom=1;right=1;left=1;top=0;fillColor=none;routingCenterX=-0.5;rounded=0;glass=0;sketch=0;fontFamily=Nunito;fontSource=https%3A%2F%2Ffonts.googleapis.com%2Fcss%3Ffamily%3DNunito;" parent="hCcfKXrb2EvXr7YopFnI-1" vertex="1">
          <mxGeometry x="460" y="160" width="20" height="10" as="geometry" />
        </mxCell>
        <mxCell id="hPYMtQA6v_j6fi8OM6DN-82" value="" style="shape=partialRectangle;whiteSpace=wrap;html=1;bottom=1;right=1;left=1;top=0;fillColor=none;routingCenterX=-0.5;rounded=0;glass=0;sketch=0;fontFamily=Nunito;fontSource=https%3A%2F%2Ffonts.googleapis.com%2Fcss%3Ffamily%3DNunito;" parent="hCcfKXrb2EvXr7YopFnI-1" vertex="1">
          <mxGeometry x="480" y="160" width="20" height="10" as="geometry" />
        </mxCell>
        <mxCell id="hPYMtQA6v_j6fi8OM6DN-83" value="" style="shape=partialRectangle;whiteSpace=wrap;html=1;bottom=1;right=1;left=1;top=0;fillColor=none;routingCenterX=-0.5;rounded=0;glass=0;sketch=0;fontFamily=Nunito;fontSource=https%3A%2F%2Ffonts.googleapis.com%2Fcss%3Ffamily%3DNunito;" parent="hCcfKXrb2EvXr7YopFnI-1" vertex="1">
          <mxGeometry x="500" y="160" width="20" height="10" as="geometry" />
        </mxCell>
        <mxCell id="hPYMtQA6v_j6fi8OM6DN-84" value="" style="shape=partialRectangle;whiteSpace=wrap;html=1;bottom=1;right=1;left=1;top=0;fillColor=none;routingCenterX=-0.5;rounded=0;glass=0;sketch=0;fontFamily=Nunito;fontSource=https%3A%2F%2Ffonts.googleapis.com%2Fcss%3Ffamily%3DNunito;" parent="hCcfKXrb2EvXr7YopFnI-1" vertex="1">
          <mxGeometry x="520" y="160" width="20" height="10" as="geometry" />
        </mxCell>
        <mxCell id="hPYMtQA6v_j6fi8OM6DN-86" value="frame.length - 8 - 1" style="shape=partialRectangle;whiteSpace=wrap;html=1;bottom=1;right=1;left=1;top=0;fillColor=none;routingCenterX=-0.5;rounded=0;glass=0;sketch=0;fontFamily=Nunito;fontSource=https%3A%2F%2Ffonts.googleapis.com%2Fcss%3Ffamily%3DNunito;direction=west;" parent="hCcfKXrb2EvXr7YopFnI-1" vertex="1">
          <mxGeometry x="200" y="130" width="340" height="30" as="geometry" />
        </mxCell>
        <mxCell id="hPYMtQA6v_j6fi8OM6DN-89" value="Frame" style="shape=dimension;whiteSpace=wrap;html=1;align=center;points=[];verticalAlign=bottom;spacingBottom=-5;labelBackgroundColor=#ffffff;rounded=0;glass=0;sketch=0;fontFamily=Nunito;fontSource=https%3A%2F%2Ffonts.googleapis.com%2Fcss%3Ffamily%3DNunito;gradientDirection=south;" parent="hCcfKXrb2EvXr7YopFnI-1" vertex="1">
          <mxGeometry x="20" y="180" width="520" height="40" as="geometry" />
        </mxCell>
        <mxCell id="hPYMtQA6v_j6fi8OM6DN-90" value="Header" style="shape=dimension;whiteSpace=wrap;html=1;align=center;points=[];verticalAlign=bottom;spacingBottom=-5;labelBackgroundColor=#ffffff;rounded=0;glass=0;sketch=0;fontFamily=Nunito;fontSource=https%3A%2F%2Ffonts.googleapis.com%2Fcss%3Ffamily%3DNunito;gradientDirection=south;" parent="hCcfKXrb2EvXr7YopFnI-1" vertex="1">
          <mxGeometry x="20" y="170" width="180" height="40" as="geometry" />
        </mxCell>
        <mxCell id="hPYMtQA6v_j6fi8OM6DN-91" value="Body" style="shape=dimension;whiteSpace=wrap;html=1;align=center;points=[];verticalAlign=bottom;spacingBottom=-5;labelBackgroundColor=#ffffff;rounded=0;glass=0;sketch=0;fontFamily=Nunito;fontSource=https%3A%2F%2Ffonts.googleapis.com%2Fcss%3Ffamily%3DNunito;gradientDirection=south;" parent="hCcfKXrb2EvXr7YopFnI-1" vertex="1">
          <mxGeometry x="200" y="170" width="340" height="40" as="geometry" />
        </mxCell>
        <mxCell id="hPYMtQA6v_j6fi8OM6DN-92" value="Frame Length" style="shape=callout;whiteSpace=wrap;html=1;perimeter=calloutPerimeter;rounded=0;glass=0;sketch=1;fontFamily=Nunito;fontSource=https%3A%2F%2Ffonts.googleapis.com%2Fcss%3Ffamily%3DNunito;gradientDirection=south;position2=0.5;base=10;fillColor=#dae8fc;strokeColor=#6c8ebf;" parent="hCcfKXrb2EvXr7YopFnI-1" vertex="1">
          <mxGeometry x="50" y="76" width="80" height="50" as="geometry" />
        </mxCell>
        <mxCell id="hPYMtQA6v_j6fi8OM6DN-94" value="Message Type" style="shape=callout;whiteSpace=wrap;html=1;perimeter=calloutPerimeter;rounded=0;glass=0;sketch=1;fontFamily=Nunito;fontSource=https%3A%2F%2Ffonts.googleapis.com%2Fcss%3Ffamily%3DNunito;gradientDirection=south;position2=0.5;base=10;fillColor=#dae8fc;strokeColor=#6c8ebf;" parent="hCcfKXrb2EvXr7YopFnI-1" vertex="1">
          <mxGeometry x="150" y="76" width="80" height="50" as="geometry" />
        </mxCell>
        <mxCell id="MpjZCJQoVUyjhCe-NOFd-0" value="Message Info" style="shape=callout;whiteSpace=wrap;html=1;perimeter=calloutPerimeter;rounded=0;glass=0;sketch=1;fontFamily=Nunito;fontSource=https%3A%2F%2Ffonts.googleapis.com%2Fcss%3Ffamily%3DNunito;gradientDirection=south;position2=0.5;base=10;fillColor=#dae8fc;strokeColor=#6c8ebf;" parent="hCcfKXrb2EvXr7YopFnI-1" vertex="1">
          <mxGeometry x="350" y="76" width="80" height="50" as="geometry" />
        </mxCell>
        <mxCell id="hCcfKXrb2EvXr7YopFnI-0" value="Message Frame Format" style="swimlane;shadow=0;fontSize=30;fillColor=#E1D5E7;startSize=60;" vertex="1" parent="hCcfKXrb2EvXr7YopFnI-1">
          <mxGeometry width="560" height="240" as="geometry" />
        </mxCell>
        <mxCell id="ufABqqUvYkVd96VSkaJ4-0" value="" style="group" vertex="1" connectable="0" parent="87zoMCgWx7IZLiXA-lgk-1">
          <mxGeometry x="940" y="980" width="1710" height="970" as="geometry" />
        </mxCell>
        <mxCell id="ufABqqUvYkVd96VSkaJ4-1" value="" style="group;fillColor=#dae8fc;strokeColor=#6c8ebf;fontFamily=Nunito;fontSource=https://fonts.googleapis.com/css?family=Nunito;" vertex="1" connectable="0" parent="ufABqqUvYkVd96VSkaJ4-0">
          <mxGeometry x="740" y="240" width="920" height="110" as="geometry" />
        </mxCell>
        <mxCell id="ufABqqUvYkVd96VSkaJ4-2" value="streamId size" style="shape=dimension;whiteSpace=wrap;html=1;align=center;points=[];verticalAlign=bottom;spacingBottom=-5;labelBackgroundColor=#ffffff;fontFamily=Nunito;fontSource=https://fonts.googleapis.com/css?family=Nunito;" vertex="1" parent="ufABqqUvYkVd96VSkaJ4-1">
          <mxGeometry y="70" width="160" height="40" as="geometry" />
        </mxCell>
        <mxCell id="ufABqqUvYkVd96VSkaJ4-3" value="&lt;font&gt;streamId&lt;/font&gt;" style="shape=dimension;whiteSpace=wrap;html=1;align=center;points=[];verticalAlign=bottom;spacingBottom=-5;labelBackgroundColor=#ffffff;fontFamily=Nunito;fontSource=https://fonts.googleapis.com/css?family=Nunito;" vertex="1" parent="ufABqqUvYkVd96VSkaJ4-1">
          <mxGeometry x="160" y="70" width="220" height="40" as="geometry" />
        </mxCell>
        <mxCell id="ufABqqUvYkVd96VSkaJ4-4" value="&lt;font data-font-src=&quot;https://fonts.googleapis.com/css?family=Nunito&quot;&gt;StreamResponse&lt;/font&gt;" style="text;html=1;align=center;verticalAlign=middle;resizable=0;points=[];autosize=1;strokeColor=none;fontSize=20;fontFamily=Nunito;fontSource=https://fonts.googleapis.com/css?family=Nunito;" vertex="1" parent="ufABqqUvYkVd96VSkaJ4-1">
          <mxGeometry x="250" y="40" width="170" height="30" as="geometry" />
        </mxCell>
        <mxCell id="ufABqqUvYkVd96VSkaJ4-5" value="4" style="text;html=1;align=center;verticalAlign=middle;resizable=0;points=[];autosize=1;strokeColor=none;fontFamily=Nunito;fontSource=https://fonts.googleapis.com/css?family=Nunito;" vertex="1" parent="ufABqqUvYkVd96VSkaJ4-1">
          <mxGeometry x="70" y="80" width="20" height="20" as="geometry" />
        </mxCell>
        <mxCell id="ufABqqUvYkVd96VSkaJ4-6" value="steamId size" style="text;html=1;align=center;verticalAlign=middle;resizable=0;points=[];autosize=1;strokeColor=none;fontFamily=Nunito;fontSource=https://fonts.googleapis.com/css?family=Nunito;" vertex="1" parent="ufABqqUvYkVd96VSkaJ4-1">
          <mxGeometry x="230" y="80" width="80" height="20" as="geometry" />
        </mxCell>
        <mxCell id="ufABqqUvYkVd96VSkaJ4-7" value="stream byteCount" style="shape=dimension;whiteSpace=wrap;html=1;align=center;points=[];verticalAlign=bottom;spacingBottom=-5;labelBackgroundColor=#ffffff;fontFamily=Nunito;fontSource=https://fonts.googleapis.com/css?family=Nunito;" vertex="1" parent="ufABqqUvYkVd96VSkaJ4-1">
          <mxGeometry x="380" y="70" width="320" height="40" as="geometry" />
        </mxCell>
        <mxCell id="ufABqqUvYkVd96VSkaJ4-8" value="8" style="text;html=1;align=center;verticalAlign=middle;resizable=0;points=[];autosize=1;strokeColor=none;fontFamily=Nunito;fontSource=https://fonts.googleapis.com/css?family=Nunito;" vertex="1" parent="ufABqqUvYkVd96VSkaJ4-1">
          <mxGeometry x="530" y="80" width="20" height="20" as="geometry" />
        </mxCell>
        <mxCell id="ufABqqUvYkVd96VSkaJ4-9" value="&lt;font&gt;stream data&lt;/font&gt;" style="shape=dimension;whiteSpace=wrap;html=1;align=center;points=[];verticalAlign=bottom;spacingBottom=-5;labelBackgroundColor=#ffffff;fontFamily=Nunito;fontSource=https://fonts.googleapis.com/css?family=Nunito;" vertex="1" parent="ufABqqUvYkVd96VSkaJ4-1">
          <mxGeometry x="700" y="70" width="220" height="40" as="geometry" />
        </mxCell>
        <mxCell id="ufABqqUvYkVd96VSkaJ4-10" value="stream bytecCount" style="text;html=1;align=center;verticalAlign=middle;resizable=0;points=[];autosize=1;strokeColor=none;fontFamily=Nunito;fontSource=https://fonts.googleapis.com/css?family=Nunito;" vertex="1" parent="ufABqqUvYkVd96VSkaJ4-1">
          <mxGeometry x="750" y="80" width="120" height="20" as="geometry" />
        </mxCell>
        <mxCell id="ufABqqUvYkVd96VSkaJ4-11" value="不包含在frame length内&lt;br&gt;isBodyInFrame = false" style="shape=callout;whiteSpace=wrap;html=1;perimeter=calloutPerimeter;shadow=0;sketch=1;fillColor=#dae8fc;strokeColor=#6c8ebf;fontFamily=Nunito;fontSource=https://fonts.googleapis.com/css?family=Nunito;" vertex="1" parent="ufABqqUvYkVd96VSkaJ4-1">
          <mxGeometry x="750" width="150" height="80" as="geometry" />
        </mxCell>
        <mxCell id="ufABqqUvYkVd96VSkaJ4-12" value="" style="group;fontFamily=Nunito;fontSource=https://fonts.googleapis.com/css?family=Nunito;fillColor=#dae8fc;strokeColor=#6c8ebf;" vertex="1" connectable="0" parent="ufABqqUvYkVd96VSkaJ4-0">
          <mxGeometry x="740" y="90" width="460" height="110" as="geometry" />
        </mxCell>
        <mxCell id="ufABqqUvYkVd96VSkaJ4-13" value="streamId size" style="shape=dimension;whiteSpace=wrap;html=1;align=center;points=[];verticalAlign=bottom;spacingBottom=-5;labelBackgroundColor=#ffffff;fontFamily=Nunito;fontSource=https://fonts.googleapis.com/css?family=Nunito;" vertex="1" parent="ufABqqUvYkVd96VSkaJ4-12">
          <mxGeometry y="47.14285714285714" width="160" height="62.857142857142854" as="geometry" />
        </mxCell>
        <mxCell id="ufABqqUvYkVd96VSkaJ4-14" value="&lt;font&gt;streamId&lt;/font&gt;" style="shape=dimension;whiteSpace=wrap;html=1;align=center;points=[];verticalAlign=bottom;spacingBottom=-5;labelBackgroundColor=#ffffff;fontFamily=Nunito;fontSource=https://fonts.googleapis.com/css?family=Nunito;" vertex="1" parent="ufABqqUvYkVd96VSkaJ4-12">
          <mxGeometry x="160" y="47.14285714285714" width="300" height="62.857142857142854" as="geometry" />
        </mxCell>
        <mxCell id="ufABqqUvYkVd96VSkaJ4-15" value="&lt;font data-font-src=&quot;https://fonts.googleapis.com/css?family=Nunito&quot;&gt;StreamRequest&lt;/font&gt;" style="text;html=1;align=center;verticalAlign=middle;resizable=0;points=[];autosize=1;strokeColor=none;fontSize=20;fontFamily=Nunito;fontSource=https://fonts.googleapis.com/css?family=Nunito;" vertex="1" parent="ufABqqUvYkVd96VSkaJ4-12">
          <mxGeometry x="150" width="150" height="30" as="geometry" />
        </mxCell>
        <mxCell id="ufABqqUvYkVd96VSkaJ4-16" value="4" style="text;html=1;align=center;verticalAlign=middle;resizable=0;points=[];autosize=1;strokeColor=none;fontFamily=Nunito;fontSource=https://fonts.googleapis.com/css?family=Nunito;" vertex="1" parent="ufABqqUvYkVd96VSkaJ4-12">
          <mxGeometry x="70" y="62.857142857142854" width="20" height="20" as="geometry" />
        </mxCell>
        <mxCell id="ufABqqUvYkVd96VSkaJ4-17" value="steamId size" style="text;html=1;align=center;verticalAlign=middle;resizable=0;points=[];autosize=1;strokeColor=none;fontFamily=Nunito;fontSource=https://fonts.googleapis.com/css?family=Nunito;" vertex="1" parent="ufABqqUvYkVd96VSkaJ4-12">
          <mxGeometry x="270" y="62.857142857142854" width="80" height="20" as="geometry" />
        </mxCell>
        <mxCell id="ufABqqUvYkVd96VSkaJ4-18" value="" style="group;fontFamily=Nunito;fontSource=https://fonts.googleapis.com/css?family=Nunito;fillColor=#dae8fc;strokeColor=#6c8ebf;" vertex="1" connectable="0" parent="ufABqqUvYkVd96VSkaJ4-0">
          <mxGeometry x="740" y="390" width="760" height="110" as="geometry" />
        </mxCell>
        <mxCell id="ufABqqUvYkVd96VSkaJ4-19" value="streamId size" style="shape=dimension;whiteSpace=wrap;html=1;align=center;points=[];verticalAlign=bottom;spacingBottom=-5;labelBackgroundColor=#ffffff;fontFamily=Nunito;fontSource=https://fonts.googleapis.com/css?family=Nunito;" vertex="1" parent="ufABqqUvYkVd96VSkaJ4-18">
          <mxGeometry y="47.14285714285714" width="160" height="62.857142857142854" as="geometry" />
        </mxCell>
        <mxCell id="ufABqqUvYkVd96VSkaJ4-20" value="&lt;font&gt;streamId&lt;/font&gt;" style="shape=dimension;whiteSpace=wrap;html=1;align=center;points=[];verticalAlign=bottom;spacingBottom=-5;labelBackgroundColor=#ffffff;fontFamily=Nunito;fontSource=https://fonts.googleapis.com/css?family=Nunito;" vertex="1" parent="ufABqqUvYkVd96VSkaJ4-18">
          <mxGeometry x="160" y="47.14285714285714" width="220" height="62.857142857142854" as="geometry" />
        </mxCell>
        <mxCell id="ufABqqUvYkVd96VSkaJ4-21" value="&lt;font data-font-src=&quot;https://fonts.googleapis.com/css?family=Nunito&quot;&gt;StreamFailure&lt;/font&gt;" style="text;html=1;align=center;verticalAlign=middle;resizable=0;points=[];autosize=1;strokeColor=none;fontSize=20;fontFamily=Nunito;fontSource=https://fonts.googleapis.com/css?family=Nunito;" vertex="1" parent="ufABqqUvYkVd96VSkaJ4-18">
          <mxGeometry x="310" width="140" height="30" as="geometry" />
        </mxCell>
        <mxCell id="ufABqqUvYkVd96VSkaJ4-22" value="4" style="text;html=1;align=center;verticalAlign=middle;resizable=0;points=[];autosize=1;strokeColor=none;fontFamily=Nunito;fontSource=https://fonts.googleapis.com/css?family=Nunito;" vertex="1" parent="ufABqqUvYkVd96VSkaJ4-18">
          <mxGeometry x="70" y="62.857142857142854" width="20" height="20" as="geometry" />
        </mxCell>
        <mxCell id="ufABqqUvYkVd96VSkaJ4-23" value="steamId size" style="text;html=1;align=center;verticalAlign=middle;resizable=0;points=[];autosize=1;strokeColor=none;fontFamily=Nunito;fontSource=https://fonts.googleapis.com/css?family=Nunito;" vertex="1" parent="ufABqqUvYkVd96VSkaJ4-18">
          <mxGeometry x="230" y="62.857142857142854" width="80" height="20" as="geometry" />
        </mxCell>
        <mxCell id="ufABqqUvYkVd96VSkaJ4-24" value="error size" style="shape=dimension;whiteSpace=wrap;html=1;align=center;points=[];verticalAlign=bottom;spacingBottom=-5;labelBackgroundColor=#ffffff;fontFamily=Nunito;fontSource=https://fonts.googleapis.com/css?family=Nunito;" vertex="1" parent="ufABqqUvYkVd96VSkaJ4-18">
          <mxGeometry x="380" y="47.14285714285714" width="160" height="62.857142857142854" as="geometry" />
        </mxCell>
        <mxCell id="ufABqqUvYkVd96VSkaJ4-25" value="&lt;font&gt;error msg&lt;/font&gt;" style="shape=dimension;whiteSpace=wrap;html=1;align=center;points=[];verticalAlign=bottom;spacingBottom=-5;labelBackgroundColor=#ffffff;fontFamily=Nunito;fontSource=https://fonts.googleapis.com/css?family=Nunito;" vertex="1" parent="ufABqqUvYkVd96VSkaJ4-18">
          <mxGeometry x="540" y="47.14285714285714" width="220" height="62.857142857142854" as="geometry" />
        </mxCell>
        <mxCell id="ufABqqUvYkVd96VSkaJ4-26" value="4" style="text;html=1;align=center;verticalAlign=middle;resizable=0;points=[];autosize=1;strokeColor=none;fontFamily=Nunito;fontSource=https://fonts.googleapis.com/css?family=Nunito;" vertex="1" parent="ufABqqUvYkVd96VSkaJ4-18">
          <mxGeometry x="450" y="62.857142857142854" width="20" height="20" as="geometry" />
        </mxCell>
        <mxCell id="ufABqqUvYkVd96VSkaJ4-27" value="error size" style="text;html=1;align=center;verticalAlign=middle;resizable=0;points=[];autosize=1;strokeColor=none;fontFamily=Nunito;fontSource=https://fonts.googleapis.com/css?family=Nunito;" vertex="1" parent="ufABqqUvYkVd96VSkaJ4-18">
          <mxGeometry x="620" y="62.857142857142854" width="60" height="20" as="geometry" />
        </mxCell>
        <mxCell id="ufABqqUvYkVd96VSkaJ4-28" value="" style="group;fontFamily=Nunito;fontSource=https://fonts.googleapis.com/css?family=Nunito;fillColor=#d5e8d4;strokeColor=#82b366;" vertex="1" connectable="0" parent="ufABqqUvYkVd96VSkaJ4-0">
          <mxGeometry x="20" y="390" width="540" height="110" as="geometry" />
        </mxCell>
        <mxCell id="ufABqqUvYkVd96VSkaJ4-29" value="&lt;font&gt;msg size&lt;/font&gt;" style="shape=dimension;whiteSpace=wrap;html=1;align=center;points=[];verticalAlign=bottom;spacingBottom=-5;labelBackgroundColor=#ffffff;fontFamily=Nunito;fontSource=https://fonts.googleapis.com/css?family=Nunito;" vertex="1" parent="ufABqqUvYkVd96VSkaJ4-28">
          <mxGeometry x="160" y="47.14285714285714" width="80" height="62.857142857142854" as="geometry" />
        </mxCell>
        <mxCell id="ufABqqUvYkVd96VSkaJ4-30" value="&lt;font&gt;requestId&lt;/font&gt;" style="shape=dimension;whiteSpace=wrap;html=1;align=center;points=[];verticalAlign=bottom;spacingBottom=-5;labelBackgroundColor=#ffffff;fontFamily=Nunito;fontSource=https://fonts.googleapis.com/css?family=Nunito;" vertex="1" parent="ufABqqUvYkVd96VSkaJ4-28">
          <mxGeometry y="47.14285714285714" width="160" height="62.857142857142854" as="geometry" />
        </mxCell>
        <mxCell id="ufABqqUvYkVd96VSkaJ4-31" value="&lt;font&gt;error msg&lt;/font&gt;" style="shape=dimension;whiteSpace=wrap;html=1;align=center;points=[];verticalAlign=bottom;spacingBottom=-5;labelBackgroundColor=#ffffff;fontFamily=Nunito;fontSource=https://fonts.googleapis.com/css?family=Nunito;" vertex="1" parent="ufABqqUvYkVd96VSkaJ4-28">
          <mxGeometry x="240" y="47.14285714285714" width="300" height="62.857142857142854" as="geometry" />
        </mxCell>
        <mxCell id="ufABqqUvYkVd96VSkaJ4-32" value="&lt;font&gt;8&lt;/font&gt;" style="text;html=1;align=center;verticalAlign=middle;resizable=0;points=[];autosize=1;strokeColor=none;fontFamily=Nunito;fontSource=https://fonts.googleapis.com/css?family=Nunito;" vertex="1" parent="ufABqqUvYkVd96VSkaJ4-28">
          <mxGeometry x="70" y="62.857142857142854" width="20" height="20" as="geometry" />
        </mxCell>
        <mxCell id="ufABqqUvYkVd96VSkaJ4-33" value="4" style="text;html=1;align=center;verticalAlign=middle;resizable=0;points=[];autosize=1;strokeColor=none;fontFamily=Nunito;fontSource=https://fonts.googleapis.com/css?family=Nunito;" vertex="1" parent="ufABqqUvYkVd96VSkaJ4-28">
          <mxGeometry x="190" y="62.857142857142854" width="20" height="20" as="geometry" />
        </mxCell>
        <mxCell id="ufABqqUvYkVd96VSkaJ4-34" value="msg size" style="text;html=1;align=center;verticalAlign=middle;resizable=0;points=[];autosize=1;strokeColor=none;fontFamily=Nunito;fontSource=https://fonts.googleapis.com/css?family=Nunito;" vertex="1" parent="ufABqqUvYkVd96VSkaJ4-28">
          <mxGeometry x="360" y="62.857142857142854" width="60" height="20" as="geometry" />
        </mxCell>
        <mxCell id="ufABqqUvYkVd96VSkaJ4-35" value="&lt;font data-font-src=&quot;https://fonts.googleapis.com/css?family=Nunito&quot;&gt;RpcFailure&lt;/font&gt;" style="text;html=1;align=center;verticalAlign=middle;resizable=0;points=[];autosize=1;strokeColor=none;fontSize=20;fontFamily=Nunito;fontSource=https://fonts.googleapis.com/css?family=Nunito;" vertex="1" parent="ufABqqUvYkVd96VSkaJ4-28">
          <mxGeometry x="205" width="110" height="30" as="geometry" />
        </mxCell>
        <mxCell id="ufABqqUvYkVd96VSkaJ4-36" value="" style="group;fontFamily=Nunito;fontSource=https://fonts.googleapis.com/css?family=Nunito;fillColor=#d5e8d4;strokeColor=#82b366;container=0;" vertex="1" connectable="0" parent="ufABqqUvYkVd96VSkaJ4-0">
          <mxGeometry x="20" y="90" width="540" height="110" as="geometry" />
        </mxCell>
        <mxCell id="ufABqqUvYkVd96VSkaJ4-37" value="" style="group;fontFamily=Nunito;fontSource=https://fonts.googleapis.com/css?family=Nunito;fillColor=#d5e8d4;strokeColor=#82b366;" vertex="1" connectable="0" parent="ufABqqUvYkVd96VSkaJ4-0">
          <mxGeometry x="20" y="240" width="540" height="110" as="geometry" />
        </mxCell>
        <mxCell id="ufABqqUvYkVd96VSkaJ4-38" value="&lt;font&gt;body size&lt;/font&gt;" style="shape=dimension;whiteSpace=wrap;html=1;align=center;points=[];verticalAlign=bottom;spacingBottom=-5;labelBackgroundColor=#ffffff;fontFamily=Nunito;fontSource=https://fonts.googleapis.com/css?family=Nunito;" vertex="1" parent="ufABqqUvYkVd96VSkaJ4-37">
          <mxGeometry x="160" y="47.14285714285714" width="80" height="62.857142857142854" as="geometry" />
        </mxCell>
        <mxCell id="ufABqqUvYkVd96VSkaJ4-39" value="&lt;font&gt;requestId&lt;/font&gt;" style="shape=dimension;whiteSpace=wrap;html=1;align=center;points=[];verticalAlign=bottom;spacingBottom=-5;labelBackgroundColor=#ffffff;fontFamily=Nunito;fontSource=https://fonts.googleapis.com/css?family=Nunito;" vertex="1" parent="ufABqqUvYkVd96VSkaJ4-37">
          <mxGeometry y="47.14285714285714" width="160" height="62.857142857142854" as="geometry" />
        </mxCell>
        <mxCell id="ufABqqUvYkVd96VSkaJ4-40" value="&lt;font&gt;body&lt;/font&gt;" style="shape=dimension;whiteSpace=wrap;html=1;align=center;points=[];verticalAlign=bottom;spacingBottom=-5;labelBackgroundColor=#ffffff;fontFamily=Nunito;fontSource=https://fonts.googleapis.com/css?family=Nunito;" vertex="1" parent="ufABqqUvYkVd96VSkaJ4-37">
          <mxGeometry x="240" y="47.14285714285714" width="300" height="62.857142857142854" as="geometry" />
        </mxCell>
        <mxCell id="ufABqqUvYkVd96VSkaJ4-41" value="&lt;font&gt;8&lt;/font&gt;" style="text;html=1;align=center;verticalAlign=middle;resizable=0;points=[];autosize=1;strokeColor=none;fontFamily=Nunito;fontSource=https://fonts.googleapis.com/css?family=Nunito;" vertex="1" parent="ufABqqUvYkVd96VSkaJ4-37">
          <mxGeometry x="70" y="62.857142857142854" width="20" height="20" as="geometry" />
        </mxCell>
        <mxCell id="ufABqqUvYkVd96VSkaJ4-42" value="4" style="text;html=1;align=center;verticalAlign=middle;resizable=0;points=[];autosize=1;strokeColor=none;fontFamily=Nunito;fontSource=https://fonts.googleapis.com/css?family=Nunito;" vertex="1" parent="ufABqqUvYkVd96VSkaJ4-37">
          <mxGeometry x="190" y="62.857142857142854" width="20" height="20" as="geometry" />
        </mxCell>
        <mxCell id="ufABqqUvYkVd96VSkaJ4-43" value="body size" style="text;html=1;align=center;verticalAlign=middle;resizable=0;points=[];autosize=1;strokeColor=none;fontFamily=Nunito;fontSource=https://fonts.googleapis.com/css?family=Nunito;" vertex="1" parent="ufABqqUvYkVd96VSkaJ4-37">
          <mxGeometry x="355" y="62.857142857142854" width="70" height="20" as="geometry" />
        </mxCell>
        <mxCell id="ufABqqUvYkVd96VSkaJ4-44" value="&lt;font data-font-src=&quot;https://fonts.googleapis.com/css?family=Nunito&quot;&gt;RpcResponse&lt;/font&gt;" style="text;html=1;align=center;verticalAlign=middle;resizable=0;points=[];autosize=1;strokeColor=none;fontSize=20;fontFamily=Nunito;fontSource=https://fonts.googleapis.com/css?family=Nunito;" vertex="1" parent="ufABqqUvYkVd96VSkaJ4-37">
          <mxGeometry x="190" width="140" height="30" as="geometry" />
        </mxCell>
        <mxCell id="ufABqqUvYkVd96VSkaJ4-45" value="" style="group;fillColor=#fff2cc;strokeColor=#d6b656;fontFamily=Nunito;fontSource=https://fonts.googleapis.com/css?family=Nunito;" vertex="1" connectable="0" parent="ufABqqUvYkVd96VSkaJ4-0">
          <mxGeometry x="740" y="540" width="380" height="110" as="geometry" />
        </mxCell>
        <mxCell id="ufABqqUvYkVd96VSkaJ4-46" value="&lt;font&gt;body size&lt;/font&gt;" style="shape=dimension;whiteSpace=wrap;html=1;align=center;points=[];verticalAlign=bottom;spacingBottom=-5;labelBackgroundColor=#ffffff;fontFamily=Nunito;fontSource=https://fonts.googleapis.com/css?family=Nunito;" vertex="1" parent="ufABqqUvYkVd96VSkaJ4-45">
          <mxGeometry y="47.14285714285714" width="80" height="62.857142857142854" as="geometry" />
        </mxCell>
        <mxCell id="ufABqqUvYkVd96VSkaJ4-47" value="&lt;font&gt;body&lt;/font&gt;" style="shape=dimension;whiteSpace=wrap;html=1;align=center;points=[];verticalAlign=bottom;spacingBottom=-5;labelBackgroundColor=#ffffff;fontFamily=Nunito;fontSource=https://fonts.googleapis.com/css?family=Nunito;" vertex="1" parent="ufABqqUvYkVd96VSkaJ4-45">
          <mxGeometry x="80" y="47.14285714285714" width="300" height="62.857142857142854" as="geometry" />
        </mxCell>
        <mxCell id="ufABqqUvYkVd96VSkaJ4-48" value="4" style="text;html=1;align=center;verticalAlign=middle;resizable=0;points=[];autosize=1;strokeColor=none;fontFamily=Nunito;fontSource=https://fonts.googleapis.com/css?family=Nunito;" vertex="1" parent="ufABqqUvYkVd96VSkaJ4-45">
          <mxGeometry x="30" y="62.857142857142854" width="20" height="20" as="geometry" />
        </mxCell>
        <mxCell id="ufABqqUvYkVd96VSkaJ4-49" value="body size" style="text;html=1;align=center;verticalAlign=middle;resizable=0;points=[];autosize=1;strokeColor=none;fontFamily=Nunito;fontSource=https://fonts.googleapis.com/css?family=Nunito;" vertex="1" parent="ufABqqUvYkVd96VSkaJ4-45">
          <mxGeometry x="195" y="62.857142857142854" width="70" height="20" as="geometry" />
        </mxCell>
        <mxCell id="ufABqqUvYkVd96VSkaJ4-50" value="&lt;font data-font-src=&quot;https://fonts.googleapis.com/css?family=Nunito&quot;&gt;OneWayMessage&lt;/font&gt;" style="text;html=1;align=center;verticalAlign=middle;resizable=0;points=[];autosize=1;strokeColor=none;fontSize=20;fontFamily=Nunito;fontSource=https://fonts.googleapis.com/css?family=Nunito;" vertex="1" parent="ufABqqUvYkVd96VSkaJ4-45">
          <mxGeometry x="110" width="170" height="30" as="geometry" />
        </mxCell>
        <mxCell id="ufABqqUvYkVd96VSkaJ4-51" value="" style="group;shadow=0;fillColor=#e1d5e7;strokeColor=#9673a6;fontFamily=Nunito;fontSource=https://fonts.googleapis.com/css?family=Nunito;" vertex="1" connectable="0" parent="ufABqqUvYkVd96VSkaJ4-0">
          <mxGeometry x="740" y="690" width="860" height="110" as="geometry" />
        </mxCell>
        <mxCell id="ufABqqUvYkVd96VSkaJ4-52" value="requestId" style="shape=dimension;whiteSpace=wrap;html=1;align=center;points=[];verticalAlign=bottom;spacingBottom=-5;labelBackgroundColor=#ffffff;fontFamily=Nunito;fontSource=https://fonts.googleapis.com/css?family=Nunito;" vertex="1" parent="ufABqqUvYkVd96VSkaJ4-51">
          <mxGeometry y="70" width="160" height="40" as="geometry" />
        </mxCell>
        <mxCell id="ufABqqUvYkVd96VSkaJ4-53" value="&lt;font&gt;metaBuf size&amp;nbsp;&lt;/font&gt;" style="shape=dimension;whiteSpace=wrap;html=1;align=center;points=[];verticalAlign=bottom;spacingBottom=-5;labelBackgroundColor=#ffffff;fontFamily=Nunito;fontSource=https://fonts.googleapis.com/css?family=Nunito;" vertex="1" parent="ufABqqUvYkVd96VSkaJ4-51">
          <mxGeometry x="160" y="70" width="80" height="40" as="geometry" />
        </mxCell>
        <mxCell id="ufABqqUvYkVd96VSkaJ4-54" value="&lt;font data-font-src=&quot;https://fonts.googleapis.com/css?family=Nunito&quot;&gt;UploadStream&lt;/font&gt;" style="text;html=1;align=center;verticalAlign=middle;resizable=0;points=[];autosize=1;strokeColor=none;fontSize=20;fontFamily=Nunito;fontSource=https://fonts.googleapis.com/css?family=Nunito;" vertex="1" parent="ufABqqUvYkVd96VSkaJ4-51">
          <mxGeometry x="340" width="150" height="30" as="geometry" />
        </mxCell>
        <mxCell id="ufABqqUvYkVd96VSkaJ4-55" value="8" style="text;html=1;align=center;verticalAlign=middle;resizable=0;points=[];autosize=1;strokeColor=none;fontFamily=Nunito;fontSource=https://fonts.googleapis.com/css?family=Nunito;" vertex="1" parent="ufABqqUvYkVd96VSkaJ4-51">
          <mxGeometry x="70" y="80" width="20" height="20" as="geometry" />
        </mxCell>
        <mxCell id="ufABqqUvYkVd96VSkaJ4-56" value="4" style="text;html=1;align=center;verticalAlign=middle;resizable=0;points=[];autosize=1;strokeColor=none;fontFamily=Nunito;fontSource=https://fonts.googleapis.com/css?family=Nunito;" vertex="1" parent="ufABqqUvYkVd96VSkaJ4-51">
          <mxGeometry x="190" y="80" width="20" height="20" as="geometry" />
        </mxCell>
        <mxCell id="ufABqqUvYkVd96VSkaJ4-57" value="metaBuf" style="shape=dimension;whiteSpace=wrap;html=1;align=center;points=[];verticalAlign=bottom;spacingBottom=-5;labelBackgroundColor=#ffffff;fontFamily=Nunito;fontSource=https://fonts.googleapis.com/css?family=Nunito;" vertex="1" parent="ufABqqUvYkVd96VSkaJ4-51">
          <mxGeometry x="240" y="70" width="240" height="40" as="geometry" />
        </mxCell>
        <mxCell id="ufABqqUvYkVd96VSkaJ4-58" value="metaBuf size" style="text;html=1;align=center;verticalAlign=middle;resizable=0;points=[];autosize=1;strokeColor=none;fontFamily=Nunito;fontSource=https://fonts.googleapis.com/css?family=Nunito;" vertex="1" parent="ufABqqUvYkVd96VSkaJ4-51">
          <mxGeometry x="315" y="80" width="90" height="20" as="geometry" />
        </mxCell>
        <mxCell id="ufABqqUvYkVd96VSkaJ4-59" value="stream body" style="shape=dimension;whiteSpace=wrap;html=1;align=center;points=[];verticalAlign=bottom;spacingBottom=-5;labelBackgroundColor=#ffffff;fontFamily=Nunito;fontSource=https://fonts.googleapis.com/css?family=Nunito;" vertex="1" parent="ufABqqUvYkVd96VSkaJ4-51">
          <mxGeometry x="640" y="70" width="220" height="40" as="geometry" />
        </mxCell>
        <mxCell id="ufABqqUvYkVd96VSkaJ4-60" value="stream bodyByteCount" style="text;html=1;align=center;verticalAlign=middle;resizable=0;points=[];autosize=1;strokeColor=none;fontFamily=Nunito;fontSource=https://fonts.googleapis.com/css?family=Nunito;" vertex="1" parent="ufABqqUvYkVd96VSkaJ4-51">
          <mxGeometry x="680" y="80" width="140" height="20" as="geometry" />
        </mxCell>
        <mxCell id="ufABqqUvYkVd96VSkaJ4-61" value="不包含在frame length内&lt;br&gt;isBodyInFrame = false" style="shape=callout;whiteSpace=wrap;html=1;perimeter=calloutPerimeter;shadow=0;sketch=1;fillColor=#dae8fc;strokeColor=#6c8ebf;fontFamily=Nunito;fontSource=https://fonts.googleapis.com/css?family=Nunito;" vertex="1" parent="ufABqqUvYkVd96VSkaJ4-51">
          <mxGeometry x="690" width="150" height="80" as="geometry" />
        </mxCell>
        <mxCell id="ufABqqUvYkVd96VSkaJ4-62" value="bodyByteCount" style="shape=dimension;whiteSpace=wrap;html=1;align=center;points=[];verticalAlign=bottom;spacingBottom=-5;labelBackgroundColor=#ffffff;fontFamily=Nunito;fontSource=https://fonts.googleapis.com/css?family=Nunito;" vertex="1" parent="ufABqqUvYkVd96VSkaJ4-51">
          <mxGeometry x="480" y="70" width="160" height="40" as="geometry" />
        </mxCell>
        <mxCell id="ufABqqUvYkVd96VSkaJ4-63" value="8" style="text;html=1;align=center;verticalAlign=middle;resizable=0;points=[];autosize=1;strokeColor=none;fontFamily=Nunito;fontSource=https://fonts.googleapis.com/css?family=Nunito;" vertex="1" parent="ufABqqUvYkVd96VSkaJ4-51">
          <mxGeometry x="550" y="80" width="20" height="20" as="geometry" />
        </mxCell>
        <mxCell id="ufABqqUvYkVd96VSkaJ4-64" value="" style="group;fillColor=#f8cecc;strokeColor=#b85450;fontFamily=Nunito;fontSource=https://fonts.googleapis.com/css?family=Nunito;" vertex="1" connectable="0" parent="ufABqqUvYkVd96VSkaJ4-0">
          <mxGeometry x="20" y="840" width="620" height="110" as="geometry" />
        </mxCell>
        <mxCell id="ufABqqUvYkVd96VSkaJ4-65" value="&lt;font&gt;msg size&lt;/font&gt;" style="shape=dimension;whiteSpace=wrap;html=1;align=center;points=[];verticalAlign=bottom;spacingBottom=-5;labelBackgroundColor=#ffffff;fontFamily=Nunito;fontSource=https://fonts.googleapis.com/css?family=Nunito;" vertex="1" parent="ufABqqUvYkVd96VSkaJ4-64">
          <mxGeometry x="240" y="47.14285714285714" width="80" height="62.857142857142854" as="geometry" />
        </mxCell>
        <mxCell id="ufABqqUvYkVd96VSkaJ4-66" value="&lt;font&gt;requestId&lt;/font&gt;" style="shape=dimension;whiteSpace=wrap;html=1;align=center;points=[];verticalAlign=bottom;spacingBottom=-5;labelBackgroundColor=#ffffff;fontFamily=Nunito;fontSource=https://fonts.googleapis.com/css?family=Nunito;" vertex="1" parent="ufABqqUvYkVd96VSkaJ4-64">
          <mxGeometry y="47.14285714285714" width="160" height="62.857142857142854" as="geometry" />
        </mxCell>
        <mxCell id="ufABqqUvYkVd96VSkaJ4-67" value="&lt;font&gt;error msg&lt;/font&gt;" style="shape=dimension;whiteSpace=wrap;html=1;align=center;points=[];verticalAlign=bottom;spacingBottom=-5;labelBackgroundColor=#ffffff;fontFamily=Nunito;fontSource=https://fonts.googleapis.com/css?family=Nunito;" vertex="1" parent="ufABqqUvYkVd96VSkaJ4-64">
          <mxGeometry x="320" y="47.14285714285714" width="300" height="62.857142857142854" as="geometry" />
        </mxCell>
        <mxCell id="ufABqqUvYkVd96VSkaJ4-68" value="&lt;font&gt;8&lt;/font&gt;" style="text;html=1;align=center;verticalAlign=middle;resizable=0;points=[];autosize=1;strokeColor=none;fontFamily=Nunito;fontSource=https://fonts.googleapis.com/css?family=Nunito;" vertex="1" parent="ufABqqUvYkVd96VSkaJ4-64">
          <mxGeometry x="70" y="62.857142857142854" width="20" height="20" as="geometry" />
        </mxCell>
        <mxCell id="ufABqqUvYkVd96VSkaJ4-69" value="4" style="text;html=1;align=center;verticalAlign=middle;resizable=0;points=[];autosize=1;strokeColor=none;fontFamily=Nunito;fontSource=https://fonts.googleapis.com/css?family=Nunito;" vertex="1" parent="ufABqqUvYkVd96VSkaJ4-64">
          <mxGeometry x="190" y="62.857142857142854" width="20" height="20" as="geometry" />
        </mxCell>
        <mxCell id="ufABqqUvYkVd96VSkaJ4-70" value="msg size" style="text;html=1;align=center;verticalAlign=middle;resizable=0;points=[];autosize=1;strokeColor=none;fontFamily=Nunito;fontSource=https://fonts.googleapis.com/css?family=Nunito;" vertex="1" parent="ufABqqUvYkVd96VSkaJ4-64">
          <mxGeometry x="440" y="62.857142857142854" width="60" height="20" as="geometry" />
        </mxCell>
        <mxCell id="ufABqqUvYkVd96VSkaJ4-71" value="&lt;font data-font-src=&quot;https://fonts.googleapis.com/css?family=Nunito&quot;&gt;ChunkFetchFailure&lt;/font&gt;" style="text;html=1;align=center;verticalAlign=middle;resizable=0;points=[];autosize=1;strokeColor=none;fontSize=20;fontFamily=Nunito;fontSource=https://fonts.googleapis.com/css?family=Nunito;" vertex="1" parent="ufABqqUvYkVd96VSkaJ4-64">
          <mxGeometry x="170" width="180" height="30" as="geometry" />
        </mxCell>
        <mxCell id="ufABqqUvYkVd96VSkaJ4-72" value="&lt;font&gt;chunkIndex&lt;/font&gt;" style="shape=dimension;whiteSpace=wrap;html=1;align=center;points=[];verticalAlign=bottom;spacingBottom=-5;labelBackgroundColor=#ffffff;fontFamily=Nunito;fontSource=https://fonts.googleapis.com/css?family=Nunito;" vertex="1" parent="ufABqqUvYkVd96VSkaJ4-64">
          <mxGeometry x="160" y="47.14285714285714" width="80" height="62.857142857142854" as="geometry" />
        </mxCell>
        <mxCell id="ufABqqUvYkVd96VSkaJ4-73" value="4" style="text;html=1;align=center;verticalAlign=middle;resizable=0;points=[];autosize=1;strokeColor=none;fontFamily=Nunito;fontSource=https://fonts.googleapis.com/css?family=Nunito;" vertex="1" parent="ufABqqUvYkVd96VSkaJ4-64">
          <mxGeometry x="270" y="62.857142857142854" width="20" height="20" as="geometry" />
        </mxCell>
        <mxCell id="ufABqqUvYkVd96VSkaJ4-74" value="" style="group;fillColor=#f8cecc;strokeColor=#b85450;fontFamily=Nunito;fontSource=https://fonts.googleapis.com/css?family=Nunito;" vertex="1" connectable="0" parent="ufABqqUvYkVd96VSkaJ4-0">
          <mxGeometry x="20" y="690" width="540" height="110" as="geometry" />
        </mxCell>
        <mxCell id="ufABqqUvYkVd96VSkaJ4-75" value="&lt;font&gt;streamId&lt;/font&gt;" style="shape=dimension;whiteSpace=wrap;html=1;align=center;points=[];verticalAlign=bottom;spacingBottom=-5;labelBackgroundColor=#ffffff;fontFamily=Nunito;fontSource=https://fonts.googleapis.com/css?family=Nunito;" vertex="1" parent="ufABqqUvYkVd96VSkaJ4-74">
          <mxGeometry y="47.14285714285714" width="160" height="62.857142857142854" as="geometry" />
        </mxCell>
        <mxCell id="ufABqqUvYkVd96VSkaJ4-76" value="&lt;font&gt;body&lt;/font&gt;" style="shape=dimension;whiteSpace=wrap;html=1;align=center;points=[];verticalAlign=bottom;spacingBottom=-5;labelBackgroundColor=#ffffff;fontFamily=Nunito;fontSource=https://fonts.googleapis.com/css?family=Nunito;" vertex="1" parent="ufABqqUvYkVd96VSkaJ4-74">
          <mxGeometry x="240" y="47.14285714285714" width="300" height="62.857142857142854" as="geometry" />
        </mxCell>
        <mxCell id="ufABqqUvYkVd96VSkaJ4-77" value="&lt;font&gt;8&lt;/font&gt;" style="text;html=1;align=center;verticalAlign=middle;resizable=0;points=[];autosize=1;strokeColor=none;fontFamily=Nunito;fontSource=https://fonts.googleapis.com/css?family=Nunito;" vertex="1" parent="ufABqqUvYkVd96VSkaJ4-74">
          <mxGeometry x="70" y="62.857142857142854" width="20" height="20" as="geometry" />
        </mxCell>
        <mxCell id="ufABqqUvYkVd96VSkaJ4-78" value="" style="edgeStyle=orthogonalEdgeStyle;rounded=0;orthogonalLoop=1;jettySize=auto;html=1;fontFamily=Nunito;fontSource=https://fonts.googleapis.com/css?family=Nunito;" edge="1" parent="ufABqqUvYkVd96VSkaJ4-74" source="ufABqqUvYkVd96VSkaJ4-79" target="ufABqqUvYkVd96VSkaJ4-77">
          <mxGeometry relative="1" as="geometry" />
        </mxCell>
        <mxCell id="ufABqqUvYkVd96VSkaJ4-79" value="4" style="text;html=1;align=center;verticalAlign=middle;resizable=0;points=[];autosize=1;strokeColor=none;fontFamily=Nunito;fontSource=https://fonts.googleapis.com/css?family=Nunito;" vertex="1" parent="ufABqqUvYkVd96VSkaJ4-74">
          <mxGeometry x="190" y="62.857142857142854" width="20" height="20" as="geometry" />
        </mxCell>
        <mxCell id="ufABqqUvYkVd96VSkaJ4-80" value="body size" style="text;html=1;align=center;verticalAlign=middle;resizable=0;points=[];autosize=1;strokeColor=none;fontFamily=Nunito;fontSource=https://fonts.googleapis.com/css?family=Nunito;" vertex="1" parent="ufABqqUvYkVd96VSkaJ4-74">
          <mxGeometry x="355" y="62.857142857142854" width="70" height="20" as="geometry" />
        </mxCell>
        <mxCell id="ufABqqUvYkVd96VSkaJ4-81" value="ChunkFetchSuccess" style="text;html=1;align=center;verticalAlign=middle;resizable=0;points=[];autosize=1;strokeColor=none;fontSize=20;fontFamily=Nunito;fontSource=https://fonts.googleapis.com/css?family=Nunito;" vertex="1" parent="ufABqqUvYkVd96VSkaJ4-74">
          <mxGeometry x="165" width="190" height="30" as="geometry" />
        </mxCell>
        <mxCell id="ufABqqUvYkVd96VSkaJ4-82" value="&lt;font&gt;chunkIndex&lt;/font&gt;" style="shape=dimension;whiteSpace=wrap;html=1;align=center;points=[];verticalAlign=bottom;spacingBottom=-5;labelBackgroundColor=#ffffff;fontFamily=Nunito;fontSource=https://fonts.googleapis.com/css?family=Nunito;" vertex="1" parent="ufABqqUvYkVd96VSkaJ4-74">
          <mxGeometry x="160" y="47.14285714285714" width="80" height="62.857142857142854" as="geometry" />
        </mxCell>
        <mxCell id="ufABqqUvYkVd96VSkaJ4-83" value="" style="group;fillColor=#f8cecc;strokeColor=#b85450;fontFamily=Nunito;fontSource=https://fonts.googleapis.com/css?family=Nunito;" vertex="1" connectable="0" parent="ufABqqUvYkVd96VSkaJ4-0">
          <mxGeometry x="20" y="540" width="480" height="110" as="geometry" />
        </mxCell>
        <mxCell id="ufABqqUvYkVd96VSkaJ4-84" value="&lt;font&gt;chunkIndex&lt;/font&gt;" style="shape=dimension;whiteSpace=wrap;html=1;align=center;points=[];verticalAlign=bottom;spacingBottom=-5;labelBackgroundColor=#ffffff;fontFamily=Nunito;fontSource=https://fonts.googleapis.com/css?family=Nunito;" vertex="1" parent="ufABqqUvYkVd96VSkaJ4-83">
          <mxGeometry x="320" y="47.14285714285714" width="160" height="62.85714285714286" as="geometry" />
        </mxCell>
        <mxCell id="ufABqqUvYkVd96VSkaJ4-85" value="&lt;font data-font-src=&quot;https://fonts.googleapis.com/css?family=Nunito&quot;&gt;streamId&lt;/font&gt;" style="shape=dimension;whiteSpace=wrap;html=1;align=center;points=[];verticalAlign=bottom;spacingBottom=-5;labelBackgroundColor=#ffffff;fontFamily=Nunito;fontSource=https://fonts.googleapis.com/css?family=Nunito;" vertex="1" parent="ufABqqUvYkVd96VSkaJ4-83">
          <mxGeometry y="47.14285714285714" width="320" height="62.85714285714286" as="geometry" />
        </mxCell>
        <mxCell id="ufABqqUvYkVd96VSkaJ4-86" value="&lt;font&gt;8&lt;/font&gt;" style="text;html=1;align=center;verticalAlign=middle;resizable=0;points=[];autosize=1;strokeColor=none;fontFamily=Nunito;fontSource=https://fonts.googleapis.com/css?family=Nunito;" vertex="1" parent="ufABqqUvYkVd96VSkaJ4-83">
          <mxGeometry x="70" y="62.85714285714286" width="20" height="20" as="geometry" />
        </mxCell>
        <mxCell id="ufABqqUvYkVd96VSkaJ4-87" value="4" style="text;html=1;align=center;verticalAlign=middle;resizable=0;points=[];autosize=1;strokeColor=none;fontFamily=Nunito;fontSource=https://fonts.googleapis.com/css?family=Nunito;" vertex="1" parent="ufABqqUvYkVd96VSkaJ4-83">
          <mxGeometry x="390" y="62.85714285714286" width="20" height="20" as="geometry" />
        </mxCell>
        <mxCell id="ufABqqUvYkVd96VSkaJ4-88" value="&lt;font data-font-src=&quot;https://fonts.googleapis.com/css?family=Nunito&quot;&gt;ChunkFetchRequest&lt;/font&gt;" style="text;html=1;align=center;verticalAlign=middle;resizable=0;points=[];autosize=1;strokeColor=none;fontSize=20;fontFamily=Nunito;fontSource=https://fonts.googleapis.com/css?family=Nunito;" vertex="1" parent="ufABqqUvYkVd96VSkaJ4-83">
          <mxGeometry x="140" width="200" height="30" as="geometry" />
        </mxCell>
        <mxCell id="ufABqqUvYkVd96VSkaJ4-89" value="&lt;font&gt;body size&lt;/font&gt;" style="shape=dimension;whiteSpace=wrap;html=1;align=center;points=[];verticalAlign=bottom;spacingBottom=-5;labelBackgroundColor=#ffffff;fontFamily=Nunito;fontSource=https://fonts.googleapis.com/css?family=Nunito;" vertex="1" parent="ufABqqUvYkVd96VSkaJ4-0">
          <mxGeometry x="180" y="137.1428571428571" width="80" height="62.857142857142854" as="geometry" />
        </mxCell>
        <mxCell id="ufABqqUvYkVd96VSkaJ4-90" value="&lt;font data-font-src=&quot;https://fonts.googleapis.com/css?family=Nunito&quot;&gt;requestId&lt;/font&gt;" style="shape=dimension;whiteSpace=wrap;html=1;align=center;points=[];verticalAlign=bottom;spacingBottom=-5;labelBackgroundColor=#ffffff;fontFamily=Nunito;fontSource=https://fonts.googleapis.com/css?family=Nunito;" vertex="1" parent="ufABqqUvYkVd96VSkaJ4-0">
          <mxGeometry x="20" y="137.1428571428571" width="160" height="62.857142857142854" as="geometry" />
        </mxCell>
        <mxCell id="ufABqqUvYkVd96VSkaJ4-91" value="&lt;font&gt;body&lt;/font&gt;" style="shape=dimension;whiteSpace=wrap;html=1;align=center;points=[];verticalAlign=bottom;spacingBottom=-5;labelBackgroundColor=#ffffff;fontFamily=Nunito;fontSource=https://fonts.googleapis.com/css?family=Nunito;" vertex="1" parent="ufABqqUvYkVd96VSkaJ4-0">
          <mxGeometry x="260" y="137.1428571428571" width="300" height="62.857142857142854" as="geometry" />
        </mxCell>
        <mxCell id="ufABqqUvYkVd96VSkaJ4-92" value="&lt;font&gt;8&lt;/font&gt;" style="text;html=1;align=center;verticalAlign=middle;resizable=0;points=[];autosize=1;strokeColor=none;fontFamily=Nunito;fontSource=https://fonts.googleapis.com/css?family=Nunito;" vertex="1" parent="ufABqqUvYkVd96VSkaJ4-0">
          <mxGeometry x="90" y="152.85714285714283" width="20" height="20" as="geometry" />
        </mxCell>
        <mxCell id="ufABqqUvYkVd96VSkaJ4-93" value="4" style="text;html=1;align=center;verticalAlign=middle;resizable=0;points=[];autosize=1;strokeColor=none;fontFamily=Nunito;fontSource=https://fonts.googleapis.com/css?family=Nunito;" vertex="1" parent="ufABqqUvYkVd96VSkaJ4-0">
          <mxGeometry x="210" y="152.85714285714283" width="20" height="20" as="geometry" />
        </mxCell>
        <mxCell id="ufABqqUvYkVd96VSkaJ4-94" value="body size" style="text;html=1;align=center;verticalAlign=middle;resizable=0;points=[];autosize=1;strokeColor=none;fontFamily=Nunito;fontSource=https://fonts.googleapis.com/css?family=Nunito;" vertex="1" parent="ufABqqUvYkVd96VSkaJ4-0">
          <mxGeometry x="375" y="152.85714285714283" width="70" height="20" as="geometry" />
        </mxCell>
        <mxCell id="ufABqqUvYkVd96VSkaJ4-95" value="&lt;font data-font-src=&quot;https://fonts.googleapis.com/css?family=Nunito&quot;&gt;RpcRequest&lt;/font&gt;" style="text;html=1;align=center;verticalAlign=middle;resizable=0;points=[];autosize=1;strokeColor=none;fontSize=20;fontFamily=Nunito;fontSource=https://fonts.googleapis.com/css?family=Nunito;" vertex="1" parent="ufABqqUvYkVd96VSkaJ4-0">
          <mxGeometry x="220" y="90" width="120" height="30" as="geometry" />
        </mxCell>
        <mxCell id="ufABqqUvYkVd96VSkaJ4-96" value="Message Protocol" style="swimlane;shadow=0;fillColor=#E1D5E7;startSize=70;fontSize=30;fontFamily=Nunito;fontSource=https://fonts.googleapis.com/css?family=Nunito;" vertex="1" parent="ufABqqUvYkVd96VSkaJ4-0">
          <mxGeometry width="1710" height="970" as="geometry" />
        </mxCell>
        <mxCell id="ufABqqUvYkVd96VSkaJ4-98" value="" style="shape=flexArrow;endArrow=classic;html=1;fontFamily=Nunito;fontSource=https%3A%2F%2Ffonts.googleapis.com%2Fcss%3Ffamily%3DNunito;fontSize=30;width=6.206896551724138;endSize=6.862068965517241;endWidth=7.443519619500594;" edge="1" parent="87zoMCgWx7IZLiXA-lgk-1">
          <mxGeometry width="50" height="50" relative="1" as="geometry">
            <mxPoint x="740" y="1070" as="sourcePoint" />
            <mxPoint x="938" y="1020" as="targetPoint" />
            <Array as="points">
              <mxPoint x="740" y="1020" />
              <mxPoint x="860" y="1020" />
            </Array>
          </mxGeometry>
        </mxCell>
      </root>
    </mxGraphModel>
  </diagram>
  <diagram id="cuufkTFhKXvPpfbD7Z3N" name="RPC">
    <mxGraphModel dx="1854" dy="1091" grid="1" gridSize="10" guides="1" tooltips="1" connect="1" arrows="1" fold="1" page="1" pageScale="1" pageWidth="4681" pageHeight="3300" math="0" shadow="0">
      <root>
        <mxCell id="0" />
        <mxCell id="1" parent="0" />
        <mxCell id="hvP7MO_aV2zDYSLjTeLw-1" value="" style="group" vertex="1" connectable="0" parent="1">
          <mxGeometry x="160" y="330" width="1710" height="970" as="geometry" />
        </mxCell>
        <mxCell id="KOefLDfCFSgeC1LJOxuY-17" value="" style="group;fillColor=#dae8fc;strokeColor=#6c8ebf;fontFamily=Nunito;fontSource=https%3A%2F%2Ffonts.googleapis.com%2Fcss%3Ffamily%3DNunito;" parent="hvP7MO_aV2zDYSLjTeLw-1" vertex="1" connectable="0">
          <mxGeometry x="740" y="240" width="920" height="110" as="geometry" />
        </mxCell>
        <mxCell id="KOefLDfCFSgeC1LJOxuY-18" value="streamId size" style="shape=dimension;whiteSpace=wrap;html=1;align=center;points=[];verticalAlign=bottom;spacingBottom=-5;labelBackgroundColor=#ffffff;fontFamily=Nunito;fontSource=https%3A%2F%2Ffonts.googleapis.com%2Fcss%3Ffamily%3DNunito;" parent="KOefLDfCFSgeC1LJOxuY-17" vertex="1">
          <mxGeometry y="70" width="160" height="40" as="geometry" />
        </mxCell>
        <mxCell id="KOefLDfCFSgeC1LJOxuY-19" value="&lt;font&gt;streamId&lt;/font&gt;" style="shape=dimension;whiteSpace=wrap;html=1;align=center;points=[];verticalAlign=bottom;spacingBottom=-5;labelBackgroundColor=#ffffff;fontFamily=Nunito;fontSource=https%3A%2F%2Ffonts.googleapis.com%2Fcss%3Ffamily%3DNunito;" parent="KOefLDfCFSgeC1LJOxuY-17" vertex="1">
          <mxGeometry x="160" y="70" width="220" height="40" as="geometry" />
        </mxCell>
        <mxCell id="KOefLDfCFSgeC1LJOxuY-20" value="&lt;font data-font-src=&quot;https://fonts.googleapis.com/css?family=Nunito&quot;&gt;StreamResponse&lt;/font&gt;" style="text;html=1;align=center;verticalAlign=middle;resizable=0;points=[];autosize=1;strokeColor=none;fontSize=20;fontFamily=Nunito;fontSource=https%3A%2F%2Ffonts.googleapis.com%2Fcss%3Ffamily%3DNunito;" parent="KOefLDfCFSgeC1LJOxuY-17" vertex="1">
          <mxGeometry x="250" y="40" width="170" height="30" as="geometry" />
        </mxCell>
        <mxCell id="KOefLDfCFSgeC1LJOxuY-21" value="4" style="text;html=1;align=center;verticalAlign=middle;resizable=0;points=[];autosize=1;strokeColor=none;fontFamily=Nunito;fontSource=https%3A%2F%2Ffonts.googleapis.com%2Fcss%3Ffamily%3DNunito;" parent="KOefLDfCFSgeC1LJOxuY-17" vertex="1">
          <mxGeometry x="70" y="80" width="20" height="20" as="geometry" />
        </mxCell>
        <mxCell id="KOefLDfCFSgeC1LJOxuY-22" value="steamId size" style="text;html=1;align=center;verticalAlign=middle;resizable=0;points=[];autosize=1;strokeColor=none;fontFamily=Nunito;fontSource=https%3A%2F%2Ffonts.googleapis.com%2Fcss%3Ffamily%3DNunito;" parent="KOefLDfCFSgeC1LJOxuY-17" vertex="1">
          <mxGeometry x="230" y="80" width="80" height="20" as="geometry" />
        </mxCell>
        <mxCell id="KOefLDfCFSgeC1LJOxuY-23" value="stream byteCount" style="shape=dimension;whiteSpace=wrap;html=1;align=center;points=[];verticalAlign=bottom;spacingBottom=-5;labelBackgroundColor=#ffffff;fontFamily=Nunito;fontSource=https%3A%2F%2Ffonts.googleapis.com%2Fcss%3Ffamily%3DNunito;" parent="KOefLDfCFSgeC1LJOxuY-17" vertex="1">
          <mxGeometry x="380" y="70" width="320" height="40" as="geometry" />
        </mxCell>
        <mxCell id="KOefLDfCFSgeC1LJOxuY-24" value="8" style="text;html=1;align=center;verticalAlign=middle;resizable=0;points=[];autosize=1;strokeColor=none;fontFamily=Nunito;fontSource=https%3A%2F%2Ffonts.googleapis.com%2Fcss%3Ffamily%3DNunito;" parent="KOefLDfCFSgeC1LJOxuY-17" vertex="1">
          <mxGeometry x="530" y="80" width="20" height="20" as="geometry" />
        </mxCell>
        <mxCell id="KOefLDfCFSgeC1LJOxuY-25" value="&lt;font&gt;stream data&lt;/font&gt;" style="shape=dimension;whiteSpace=wrap;html=1;align=center;points=[];verticalAlign=bottom;spacingBottom=-5;labelBackgroundColor=#ffffff;fontFamily=Nunito;fontSource=https%3A%2F%2Ffonts.googleapis.com%2Fcss%3Ffamily%3DNunito;" parent="KOefLDfCFSgeC1LJOxuY-17" vertex="1">
          <mxGeometry x="700" y="70" width="220" height="40" as="geometry" />
        </mxCell>
        <mxCell id="KOefLDfCFSgeC1LJOxuY-26" value="stream bytecCount" style="text;html=1;align=center;verticalAlign=middle;resizable=0;points=[];autosize=1;strokeColor=none;fontFamily=Nunito;fontSource=https%3A%2F%2Ffonts.googleapis.com%2Fcss%3Ffamily%3DNunito;" parent="KOefLDfCFSgeC1LJOxuY-17" vertex="1">
          <mxGeometry x="750" y="80" width="120" height="20" as="geometry" />
        </mxCell>
        <mxCell id="KOefLDfCFSgeC1LJOxuY-27" value="不包含在frame length内&lt;br&gt;isBodyInFrame = false" style="shape=callout;whiteSpace=wrap;html=1;perimeter=calloutPerimeter;shadow=0;sketch=1;fillColor=#dae8fc;strokeColor=#6c8ebf;fontFamily=Nunito;fontSource=https%3A%2F%2Ffonts.googleapis.com%2Fcss%3Ffamily%3DNunito;" parent="KOefLDfCFSgeC1LJOxuY-17" vertex="1">
          <mxGeometry x="750" width="150" height="80" as="geometry" />
        </mxCell>
        <mxCell id="KOefLDfCFSgeC1LJOxuY-1" value="" style="group;fontFamily=Nunito;fontSource=https%3A%2F%2Ffonts.googleapis.com%2Fcss%3Ffamily%3DNunito;fillColor=#dae8fc;strokeColor=#6c8ebf;" parent="hvP7MO_aV2zDYSLjTeLw-1" vertex="1" connectable="0">
          <mxGeometry x="740" y="90" width="460" height="110" as="geometry" />
        </mxCell>
        <mxCell id="KOefLDfCFSgeC1LJOxuY-2" value="streamId size" style="shape=dimension;whiteSpace=wrap;html=1;align=center;points=[];verticalAlign=bottom;spacingBottom=-5;labelBackgroundColor=#ffffff;fontFamily=Nunito;fontSource=https%3A%2F%2Ffonts.googleapis.com%2Fcss%3Ffamily%3DNunito;" parent="KOefLDfCFSgeC1LJOxuY-1" vertex="1">
          <mxGeometry y="47.14285714285714" width="160" height="62.857142857142854" as="geometry" />
        </mxCell>
        <mxCell id="KOefLDfCFSgeC1LJOxuY-3" value="&lt;font&gt;streamId&lt;/font&gt;" style="shape=dimension;whiteSpace=wrap;html=1;align=center;points=[];verticalAlign=bottom;spacingBottom=-5;labelBackgroundColor=#ffffff;fontFamily=Nunito;fontSource=https%3A%2F%2Ffonts.googleapis.com%2Fcss%3Ffamily%3DNunito;" parent="KOefLDfCFSgeC1LJOxuY-1" vertex="1">
          <mxGeometry x="160" y="47.14285714285714" width="300" height="62.857142857142854" as="geometry" />
        </mxCell>
        <mxCell id="KOefLDfCFSgeC1LJOxuY-4" value="&lt;font data-font-src=&quot;https://fonts.googleapis.com/css?family=Nunito&quot;&gt;StreamRequest&lt;/font&gt;" style="text;html=1;align=center;verticalAlign=middle;resizable=0;points=[];autosize=1;strokeColor=none;fontSize=20;fontFamily=Nunito;fontSource=https%3A%2F%2Ffonts.googleapis.com%2Fcss%3Ffamily%3DNunito;" parent="KOefLDfCFSgeC1LJOxuY-1" vertex="1">
          <mxGeometry x="150" width="150" height="30" as="geometry" />
        </mxCell>
        <mxCell id="KOefLDfCFSgeC1LJOxuY-5" value="4" style="text;html=1;align=center;verticalAlign=middle;resizable=0;points=[];autosize=1;strokeColor=none;fontFamily=Nunito;fontSource=https%3A%2F%2Ffonts.googleapis.com%2Fcss%3Ffamily%3DNunito;" parent="KOefLDfCFSgeC1LJOxuY-1" vertex="1">
          <mxGeometry x="70" y="62.857142857142854" width="20" height="20" as="geometry" />
        </mxCell>
        <mxCell id="KOefLDfCFSgeC1LJOxuY-6" value="steamId size" style="text;html=1;align=center;verticalAlign=middle;resizable=0;points=[];autosize=1;strokeColor=none;fontFamily=Nunito;fontSource=https%3A%2F%2Ffonts.googleapis.com%2Fcss%3Ffamily%3DNunito;" parent="KOefLDfCFSgeC1LJOxuY-1" vertex="1">
          <mxGeometry x="270" y="62.857142857142854" width="80" height="20" as="geometry" />
        </mxCell>
        <mxCell id="KOefLDfCFSgeC1LJOxuY-7" value="" style="group;fontFamily=Nunito;fontSource=https%3A%2F%2Ffonts.googleapis.com%2Fcss%3Ffamily%3DNunito;fillColor=#dae8fc;strokeColor=#6c8ebf;" parent="hvP7MO_aV2zDYSLjTeLw-1" vertex="1" connectable="0">
          <mxGeometry x="740" y="390" width="760" height="110" as="geometry" />
        </mxCell>
        <mxCell id="KOefLDfCFSgeC1LJOxuY-8" value="streamId size" style="shape=dimension;whiteSpace=wrap;html=1;align=center;points=[];verticalAlign=bottom;spacingBottom=-5;labelBackgroundColor=#ffffff;fontFamily=Nunito;fontSource=https%3A%2F%2Ffonts.googleapis.com%2Fcss%3Ffamily%3DNunito;" parent="KOefLDfCFSgeC1LJOxuY-7" vertex="1">
          <mxGeometry y="47.14285714285714" width="160" height="62.857142857142854" as="geometry" />
        </mxCell>
        <mxCell id="KOefLDfCFSgeC1LJOxuY-9" value="&lt;font&gt;streamId&lt;/font&gt;" style="shape=dimension;whiteSpace=wrap;html=1;align=center;points=[];verticalAlign=bottom;spacingBottom=-5;labelBackgroundColor=#ffffff;fontFamily=Nunito;fontSource=https%3A%2F%2Ffonts.googleapis.com%2Fcss%3Ffamily%3DNunito;" parent="KOefLDfCFSgeC1LJOxuY-7" vertex="1">
          <mxGeometry x="160" y="47.14285714285714" width="220" height="62.857142857142854" as="geometry" />
        </mxCell>
        <mxCell id="KOefLDfCFSgeC1LJOxuY-10" value="&lt;font data-font-src=&quot;https://fonts.googleapis.com/css?family=Nunito&quot;&gt;StreamFailure&lt;/font&gt;" style="text;html=1;align=center;verticalAlign=middle;resizable=0;points=[];autosize=1;strokeColor=none;fontSize=20;fontFamily=Nunito;fontSource=https%3A%2F%2Ffonts.googleapis.com%2Fcss%3Ffamily%3DNunito;" parent="KOefLDfCFSgeC1LJOxuY-7" vertex="1">
          <mxGeometry x="310" width="140" height="30" as="geometry" />
        </mxCell>
        <mxCell id="KOefLDfCFSgeC1LJOxuY-11" value="4" style="text;html=1;align=center;verticalAlign=middle;resizable=0;points=[];autosize=1;strokeColor=none;fontFamily=Nunito;fontSource=https%3A%2F%2Ffonts.googleapis.com%2Fcss%3Ffamily%3DNunito;" parent="KOefLDfCFSgeC1LJOxuY-7" vertex="1">
          <mxGeometry x="70" y="62.857142857142854" width="20" height="20" as="geometry" />
        </mxCell>
        <mxCell id="KOefLDfCFSgeC1LJOxuY-12" value="steamId size" style="text;html=1;align=center;verticalAlign=middle;resizable=0;points=[];autosize=1;strokeColor=none;fontFamily=Nunito;fontSource=https%3A%2F%2Ffonts.googleapis.com%2Fcss%3Ffamily%3DNunito;" parent="KOefLDfCFSgeC1LJOxuY-7" vertex="1">
          <mxGeometry x="230" y="62.857142857142854" width="80" height="20" as="geometry" />
        </mxCell>
        <mxCell id="KOefLDfCFSgeC1LJOxuY-13" value="error size" style="shape=dimension;whiteSpace=wrap;html=1;align=center;points=[];verticalAlign=bottom;spacingBottom=-5;labelBackgroundColor=#ffffff;fontFamily=Nunito;fontSource=https%3A%2F%2Ffonts.googleapis.com%2Fcss%3Ffamily%3DNunito;" parent="KOefLDfCFSgeC1LJOxuY-7" vertex="1">
          <mxGeometry x="380" y="47.14285714285714" width="160" height="62.857142857142854" as="geometry" />
        </mxCell>
        <mxCell id="KOefLDfCFSgeC1LJOxuY-14" value="&lt;font&gt;error msg&lt;/font&gt;" style="shape=dimension;whiteSpace=wrap;html=1;align=center;points=[];verticalAlign=bottom;spacingBottom=-5;labelBackgroundColor=#ffffff;fontFamily=Nunito;fontSource=https%3A%2F%2Ffonts.googleapis.com%2Fcss%3Ffamily%3DNunito;" parent="KOefLDfCFSgeC1LJOxuY-7" vertex="1">
          <mxGeometry x="540" y="47.14285714285714" width="220" height="62.857142857142854" as="geometry" />
        </mxCell>
        <mxCell id="KOefLDfCFSgeC1LJOxuY-15" value="4" style="text;html=1;align=center;verticalAlign=middle;resizable=0;points=[];autosize=1;strokeColor=none;fontFamily=Nunito;fontSource=https%3A%2F%2Ffonts.googleapis.com%2Fcss%3Ffamily%3DNunito;" parent="KOefLDfCFSgeC1LJOxuY-7" vertex="1">
          <mxGeometry x="450" y="62.857142857142854" width="20" height="20" as="geometry" />
        </mxCell>
        <mxCell id="KOefLDfCFSgeC1LJOxuY-16" value="error size" style="text;html=1;align=center;verticalAlign=middle;resizable=0;points=[];autosize=1;strokeColor=none;fontFamily=Nunito;fontSource=https%3A%2F%2Ffonts.googleapis.com%2Fcss%3Ffamily%3DNunito;" parent="KOefLDfCFSgeC1LJOxuY-7" vertex="1">
          <mxGeometry x="620" y="62.857142857142854" width="60" height="20" as="geometry" />
        </mxCell>
        <mxCell id="QbxbpcJ4an9Vn-Q8Qio1-23" value="" style="group;fontFamily=Nunito;fontSource=https%3A%2F%2Ffonts.googleapis.com%2Fcss%3Ffamily%3DNunito;fillColor=#d5e8d4;strokeColor=#82b366;" parent="hvP7MO_aV2zDYSLjTeLw-1" vertex="1" connectable="0">
          <mxGeometry x="20" y="390" width="540" height="110" as="geometry" />
        </mxCell>
        <mxCell id="QbxbpcJ4an9Vn-Q8Qio1-14" value="&lt;font&gt;msg size&lt;/font&gt;" style="shape=dimension;whiteSpace=wrap;html=1;align=center;points=[];verticalAlign=bottom;spacingBottom=-5;labelBackgroundColor=#ffffff;fontFamily=Nunito;fontSource=https%3A%2F%2Ffonts.googleapis.com%2Fcss%3Ffamily%3DNunito;" parent="QbxbpcJ4an9Vn-Q8Qio1-23" vertex="1">
          <mxGeometry x="160" y="47.14285714285714" width="80" height="62.857142857142854" as="geometry" />
        </mxCell>
        <mxCell id="QbxbpcJ4an9Vn-Q8Qio1-15" value="&lt;font&gt;requestId&lt;/font&gt;" style="shape=dimension;whiteSpace=wrap;html=1;align=center;points=[];verticalAlign=bottom;spacingBottom=-5;labelBackgroundColor=#ffffff;fontFamily=Nunito;fontSource=https%3A%2F%2Ffonts.googleapis.com%2Fcss%3Ffamily%3DNunito;" parent="QbxbpcJ4an9Vn-Q8Qio1-23" vertex="1">
          <mxGeometry y="47.14285714285714" width="160" height="62.857142857142854" as="geometry" />
        </mxCell>
        <mxCell id="QbxbpcJ4an9Vn-Q8Qio1-16" value="&lt;font&gt;error msg&lt;/font&gt;" style="shape=dimension;whiteSpace=wrap;html=1;align=center;points=[];verticalAlign=bottom;spacingBottom=-5;labelBackgroundColor=#ffffff;fontFamily=Nunito;fontSource=https%3A%2F%2Ffonts.googleapis.com%2Fcss%3Ffamily%3DNunito;" parent="QbxbpcJ4an9Vn-Q8Qio1-23" vertex="1">
          <mxGeometry x="240" y="47.14285714285714" width="300" height="62.857142857142854" as="geometry" />
        </mxCell>
        <mxCell id="QbxbpcJ4an9Vn-Q8Qio1-17" value="&lt;font&gt;8&lt;/font&gt;" style="text;html=1;align=center;verticalAlign=middle;resizable=0;points=[];autosize=1;strokeColor=none;fontFamily=Nunito;fontSource=https%3A%2F%2Ffonts.googleapis.com%2Fcss%3Ffamily%3DNunito;" parent="QbxbpcJ4an9Vn-Q8Qio1-23" vertex="1">
          <mxGeometry x="70" y="62.857142857142854" width="20" height="20" as="geometry" />
        </mxCell>
        <mxCell id="QbxbpcJ4an9Vn-Q8Qio1-18" value="4" style="text;html=1;align=center;verticalAlign=middle;resizable=0;points=[];autosize=1;strokeColor=none;fontFamily=Nunito;fontSource=https%3A%2F%2Ffonts.googleapis.com%2Fcss%3Ffamily%3DNunito;" parent="QbxbpcJ4an9Vn-Q8Qio1-23" vertex="1">
          <mxGeometry x="190" y="62.857142857142854" width="20" height="20" as="geometry" />
        </mxCell>
        <mxCell id="QbxbpcJ4an9Vn-Q8Qio1-19" value="msg size" style="text;html=1;align=center;verticalAlign=middle;resizable=0;points=[];autosize=1;strokeColor=none;fontFamily=Nunito;fontSource=https%3A%2F%2Ffonts.googleapis.com%2Fcss%3Ffamily%3DNunito;" parent="QbxbpcJ4an9Vn-Q8Qio1-23" vertex="1">
          <mxGeometry x="360" y="62.857142857142854" width="60" height="20" as="geometry" />
        </mxCell>
        <mxCell id="QbxbpcJ4an9Vn-Q8Qio1-20" value="&lt;font data-font-src=&quot;https://fonts.googleapis.com/css?family=Nunito&quot;&gt;RpcFailure&lt;/font&gt;" style="text;html=1;align=center;verticalAlign=middle;resizable=0;points=[];autosize=1;strokeColor=none;fontSize=20;fontFamily=Nunito;fontSource=https%3A%2F%2Ffonts.googleapis.com%2Fcss%3Ffamily%3DNunito;" parent="QbxbpcJ4an9Vn-Q8Qio1-23" vertex="1">
          <mxGeometry x="205" width="110" height="30" as="geometry" />
        </mxCell>
        <mxCell id="QbxbpcJ4an9Vn-Q8Qio1-24" value="" style="group;fontFamily=Nunito;fontSource=https%3A%2F%2Ffonts.googleapis.com%2Fcss%3Ffamily%3DNunito;fillColor=#d5e8d4;strokeColor=#82b366;container=0;" parent="hvP7MO_aV2zDYSLjTeLw-1" vertex="1" connectable="0">
          <mxGeometry x="20" y="90" width="540" height="110" as="geometry" />
        </mxCell>
        <mxCell id="QbxbpcJ4an9Vn-Q8Qio1-32" value="" style="group;fontFamily=Nunito;fontSource=https%3A%2F%2Ffonts.googleapis.com%2Fcss%3Ffamily%3DNunito;fillColor=#d5e8d4;strokeColor=#82b366;" parent="hvP7MO_aV2zDYSLjTeLw-1" vertex="1" connectable="0">
          <mxGeometry x="20" y="240" width="540" height="110" as="geometry" />
        </mxCell>
        <mxCell id="QbxbpcJ4an9Vn-Q8Qio1-33" value="&lt;font&gt;body size&lt;/font&gt;" style="shape=dimension;whiteSpace=wrap;html=1;align=center;points=[];verticalAlign=bottom;spacingBottom=-5;labelBackgroundColor=#ffffff;fontFamily=Nunito;fontSource=https%3A%2F%2Ffonts.googleapis.com%2Fcss%3Ffamily%3DNunito;" parent="QbxbpcJ4an9Vn-Q8Qio1-32" vertex="1">
          <mxGeometry x="160" y="47.14285714285714" width="80" height="62.857142857142854" as="geometry" />
        </mxCell>
        <mxCell id="QbxbpcJ4an9Vn-Q8Qio1-34" value="&lt;font&gt;requestId&lt;/font&gt;" style="shape=dimension;whiteSpace=wrap;html=1;align=center;points=[];verticalAlign=bottom;spacingBottom=-5;labelBackgroundColor=#ffffff;fontFamily=Nunito;fontSource=https%3A%2F%2Ffonts.googleapis.com%2Fcss%3Ffamily%3DNunito;" parent="QbxbpcJ4an9Vn-Q8Qio1-32" vertex="1">
          <mxGeometry y="47.14285714285714" width="160" height="62.857142857142854" as="geometry" />
        </mxCell>
        <mxCell id="QbxbpcJ4an9Vn-Q8Qio1-35" value="&lt;font&gt;body&lt;/font&gt;" style="shape=dimension;whiteSpace=wrap;html=1;align=center;points=[];verticalAlign=bottom;spacingBottom=-5;labelBackgroundColor=#ffffff;fontFamily=Nunito;fontSource=https%3A%2F%2Ffonts.googleapis.com%2Fcss%3Ffamily%3DNunito;" parent="QbxbpcJ4an9Vn-Q8Qio1-32" vertex="1">
          <mxGeometry x="240" y="47.14285714285714" width="300" height="62.857142857142854" as="geometry" />
        </mxCell>
        <mxCell id="QbxbpcJ4an9Vn-Q8Qio1-36" value="&lt;font&gt;8&lt;/font&gt;" style="text;html=1;align=center;verticalAlign=middle;resizable=0;points=[];autosize=1;strokeColor=none;fontFamily=Nunito;fontSource=https%3A%2F%2Ffonts.googleapis.com%2Fcss%3Ffamily%3DNunito;" parent="QbxbpcJ4an9Vn-Q8Qio1-32" vertex="1">
          <mxGeometry x="70" y="62.857142857142854" width="20" height="20" as="geometry" />
        </mxCell>
        <mxCell id="QbxbpcJ4an9Vn-Q8Qio1-37" value="4" style="text;html=1;align=center;verticalAlign=middle;resizable=0;points=[];autosize=1;strokeColor=none;fontFamily=Nunito;fontSource=https%3A%2F%2Ffonts.googleapis.com%2Fcss%3Ffamily%3DNunito;" parent="QbxbpcJ4an9Vn-Q8Qio1-32" vertex="1">
          <mxGeometry x="190" y="62.857142857142854" width="20" height="20" as="geometry" />
        </mxCell>
        <mxCell id="QbxbpcJ4an9Vn-Q8Qio1-38" value="body size" style="text;html=1;align=center;verticalAlign=middle;resizable=0;points=[];autosize=1;strokeColor=none;fontFamily=Nunito;fontSource=https%3A%2F%2Ffonts.googleapis.com%2Fcss%3Ffamily%3DNunito;" parent="QbxbpcJ4an9Vn-Q8Qio1-32" vertex="1">
          <mxGeometry x="355" y="62.857142857142854" width="70" height="20" as="geometry" />
        </mxCell>
        <mxCell id="QbxbpcJ4an9Vn-Q8Qio1-39" value="&lt;font data-font-src=&quot;https://fonts.googleapis.com/css?family=Nunito&quot;&gt;RpcResponse&lt;/font&gt;" style="text;html=1;align=center;verticalAlign=middle;resizable=0;points=[];autosize=1;strokeColor=none;fontSize=20;fontFamily=Nunito;fontSource=https%3A%2F%2Ffonts.googleapis.com%2Fcss%3Ffamily%3DNunito;" parent="QbxbpcJ4an9Vn-Q8Qio1-32" vertex="1">
          <mxGeometry x="190" width="140" height="30" as="geometry" />
        </mxCell>
        <mxCell id="kKIxoyxsqVyTKml1t6NP-34" value="" style="group;fillColor=#fff2cc;strokeColor=#d6b656;fontFamily=Nunito;fontSource=https%3A%2F%2Ffonts.googleapis.com%2Fcss%3Ffamily%3DNunito;" parent="hvP7MO_aV2zDYSLjTeLw-1" vertex="1" connectable="0">
          <mxGeometry x="740" y="540" width="380" height="110" as="geometry" />
        </mxCell>
        <mxCell id="kKIxoyxsqVyTKml1t6NP-27" value="&lt;font&gt;body size&lt;/font&gt;" style="shape=dimension;whiteSpace=wrap;html=1;align=center;points=[];verticalAlign=bottom;spacingBottom=-5;labelBackgroundColor=#ffffff;fontFamily=Nunito;fontSource=https%3A%2F%2Ffonts.googleapis.com%2Fcss%3Ffamily%3DNunito;" parent="kKIxoyxsqVyTKml1t6NP-34" vertex="1">
          <mxGeometry y="47.14285714285714" width="80" height="62.857142857142854" as="geometry" />
        </mxCell>
        <mxCell id="kKIxoyxsqVyTKml1t6NP-29" value="&lt;font&gt;body&lt;/font&gt;" style="shape=dimension;whiteSpace=wrap;html=1;align=center;points=[];verticalAlign=bottom;spacingBottom=-5;labelBackgroundColor=#ffffff;fontFamily=Nunito;fontSource=https%3A%2F%2Ffonts.googleapis.com%2Fcss%3Ffamily%3DNunito;" parent="kKIxoyxsqVyTKml1t6NP-34" vertex="1">
          <mxGeometry x="80" y="47.14285714285714" width="300" height="62.857142857142854" as="geometry" />
        </mxCell>
        <mxCell id="kKIxoyxsqVyTKml1t6NP-31" value="4" style="text;html=1;align=center;verticalAlign=middle;resizable=0;points=[];autosize=1;strokeColor=none;fontFamily=Nunito;fontSource=https%3A%2F%2Ffonts.googleapis.com%2Fcss%3Ffamily%3DNunito;" parent="kKIxoyxsqVyTKml1t6NP-34" vertex="1">
          <mxGeometry x="30" y="62.857142857142854" width="20" height="20" as="geometry" />
        </mxCell>
        <mxCell id="kKIxoyxsqVyTKml1t6NP-32" value="body size" style="text;html=1;align=center;verticalAlign=middle;resizable=0;points=[];autosize=1;strokeColor=none;fontFamily=Nunito;fontSource=https%3A%2F%2Ffonts.googleapis.com%2Fcss%3Ffamily%3DNunito;" parent="kKIxoyxsqVyTKml1t6NP-34" vertex="1">
          <mxGeometry x="195" y="62.857142857142854" width="70" height="20" as="geometry" />
        </mxCell>
        <mxCell id="kKIxoyxsqVyTKml1t6NP-33" value="&lt;font data-font-src=&quot;https://fonts.googleapis.com/css?family=Nunito&quot;&gt;OneWayMessage&lt;/font&gt;" style="text;html=1;align=center;verticalAlign=middle;resizable=0;points=[];autosize=1;strokeColor=none;fontSize=20;fontFamily=Nunito;fontSource=https%3A%2F%2Ffonts.googleapis.com%2Fcss%3Ffamily%3DNunito;" parent="kKIxoyxsqVyTKml1t6NP-34" vertex="1">
          <mxGeometry x="110" width="170" height="30" as="geometry" />
        </mxCell>
        <mxCell id="RQqVBj0FBGKfo5fiOvbJ-21" value="" style="group;shadow=0;fillColor=#e1d5e7;strokeColor=#9673a6;fontFamily=Nunito;fontSource=https%3A%2F%2Ffonts.googleapis.com%2Fcss%3Ffamily%3DNunito;" vertex="1" connectable="0" parent="hvP7MO_aV2zDYSLjTeLw-1">
          <mxGeometry x="740" y="690" width="860" height="110" as="geometry" />
        </mxCell>
        <mxCell id="RQqVBj0FBGKfo5fiOvbJ-2" value="requestId" style="shape=dimension;whiteSpace=wrap;html=1;align=center;points=[];verticalAlign=bottom;spacingBottom=-5;labelBackgroundColor=#ffffff;fontFamily=Nunito;fontSource=https%3A%2F%2Ffonts.googleapis.com%2Fcss%3Ffamily%3DNunito;" vertex="1" parent="RQqVBj0FBGKfo5fiOvbJ-21">
          <mxGeometry y="70" width="160" height="40" as="geometry" />
        </mxCell>
        <mxCell id="RQqVBj0FBGKfo5fiOvbJ-3" value="&lt;font&gt;metaBuf size&amp;nbsp;&lt;/font&gt;" style="shape=dimension;whiteSpace=wrap;html=1;align=center;points=[];verticalAlign=bottom;spacingBottom=-5;labelBackgroundColor=#ffffff;fontFamily=Nunito;fontSource=https%3A%2F%2Ffonts.googleapis.com%2Fcss%3Ffamily%3DNunito;" vertex="1" parent="RQqVBj0FBGKfo5fiOvbJ-21">
          <mxGeometry x="160" y="70" width="80" height="40" as="geometry" />
        </mxCell>
        <mxCell id="RQqVBj0FBGKfo5fiOvbJ-4" value="&lt;font data-font-src=&quot;https://fonts.googleapis.com/css?family=Nunito&quot;&gt;UploadStream&lt;/font&gt;" style="text;html=1;align=center;verticalAlign=middle;resizable=0;points=[];autosize=1;strokeColor=none;fontSize=20;fontFamily=Nunito;fontSource=https%3A%2F%2Ffonts.googleapis.com%2Fcss%3Ffamily%3DNunito;" vertex="1" parent="RQqVBj0FBGKfo5fiOvbJ-21">
          <mxGeometry x="340" width="150" height="30" as="geometry" />
        </mxCell>
        <mxCell id="RQqVBj0FBGKfo5fiOvbJ-5" value="8" style="text;html=1;align=center;verticalAlign=middle;resizable=0;points=[];autosize=1;strokeColor=none;fontFamily=Nunito;fontSource=https%3A%2F%2Ffonts.googleapis.com%2Fcss%3Ffamily%3DNunito;" vertex="1" parent="RQqVBj0FBGKfo5fiOvbJ-21">
          <mxGeometry x="70" y="80" width="20" height="20" as="geometry" />
        </mxCell>
        <mxCell id="RQqVBj0FBGKfo5fiOvbJ-6" value="4" style="text;html=1;align=center;verticalAlign=middle;resizable=0;points=[];autosize=1;strokeColor=none;fontFamily=Nunito;fontSource=https%3A%2F%2Ffonts.googleapis.com%2Fcss%3Ffamily%3DNunito;" vertex="1" parent="RQqVBj0FBGKfo5fiOvbJ-21">
          <mxGeometry x="190" y="80" width="20" height="20" as="geometry" />
        </mxCell>
        <mxCell id="RQqVBj0FBGKfo5fiOvbJ-7" value="metaBuf" style="shape=dimension;whiteSpace=wrap;html=1;align=center;points=[];verticalAlign=bottom;spacingBottom=-5;labelBackgroundColor=#ffffff;fontFamily=Nunito;fontSource=https%3A%2F%2Ffonts.googleapis.com%2Fcss%3Ffamily%3DNunito;" vertex="1" parent="RQqVBj0FBGKfo5fiOvbJ-21">
          <mxGeometry x="240" y="70" width="240" height="40" as="geometry" />
        </mxCell>
        <mxCell id="RQqVBj0FBGKfo5fiOvbJ-8" value="metaBuf size" style="text;html=1;align=center;verticalAlign=middle;resizable=0;points=[];autosize=1;strokeColor=none;fontFamily=Nunito;fontSource=https%3A%2F%2Ffonts.googleapis.com%2Fcss%3Ffamily%3DNunito;" vertex="1" parent="RQqVBj0FBGKfo5fiOvbJ-21">
          <mxGeometry x="315" y="80" width="90" height="20" as="geometry" />
        </mxCell>
        <mxCell id="RQqVBj0FBGKfo5fiOvbJ-9" value="stream body" style="shape=dimension;whiteSpace=wrap;html=1;align=center;points=[];verticalAlign=bottom;spacingBottom=-5;labelBackgroundColor=#ffffff;fontFamily=Nunito;fontSource=https%3A%2F%2Ffonts.googleapis.com%2Fcss%3Ffamily%3DNunito;" vertex="1" parent="RQqVBj0FBGKfo5fiOvbJ-21">
          <mxGeometry x="640" y="70" width="220" height="40" as="geometry" />
        </mxCell>
        <mxCell id="RQqVBj0FBGKfo5fiOvbJ-10" value="stream bodyByteCount" style="text;html=1;align=center;verticalAlign=middle;resizable=0;points=[];autosize=1;strokeColor=none;fontFamily=Nunito;fontSource=https%3A%2F%2Ffonts.googleapis.com%2Fcss%3Ffamily%3DNunito;" vertex="1" parent="RQqVBj0FBGKfo5fiOvbJ-21">
          <mxGeometry x="680" y="80" width="140" height="20" as="geometry" />
        </mxCell>
        <mxCell id="RQqVBj0FBGKfo5fiOvbJ-11" value="不包含在frame length内&lt;br&gt;isBodyInFrame = false" style="shape=callout;whiteSpace=wrap;html=1;perimeter=calloutPerimeter;shadow=0;sketch=1;fillColor=#dae8fc;strokeColor=#6c8ebf;fontFamily=Nunito;fontSource=https%3A%2F%2Ffonts.googleapis.com%2Fcss%3Ffamily%3DNunito;" vertex="1" parent="RQqVBj0FBGKfo5fiOvbJ-21">
          <mxGeometry x="690" width="150" height="80" as="geometry" />
        </mxCell>
        <mxCell id="RQqVBj0FBGKfo5fiOvbJ-14" value="bodyByteCount" style="shape=dimension;whiteSpace=wrap;html=1;align=center;points=[];verticalAlign=bottom;spacingBottom=-5;labelBackgroundColor=#ffffff;fontFamily=Nunito;fontSource=https%3A%2F%2Ffonts.googleapis.com%2Fcss%3Ffamily%3DNunito;" vertex="1" parent="RQqVBj0FBGKfo5fiOvbJ-21">
          <mxGeometry x="480" y="70" width="160" height="40" as="geometry" />
        </mxCell>
        <mxCell id="RQqVBj0FBGKfo5fiOvbJ-17" value="8" style="text;html=1;align=center;verticalAlign=middle;resizable=0;points=[];autosize=1;strokeColor=none;fontFamily=Nunito;fontSource=https%3A%2F%2Ffonts.googleapis.com%2Fcss%3Ffamily%3DNunito;" vertex="1" parent="RQqVBj0FBGKfo5fiOvbJ-21">
          <mxGeometry x="550" y="80" width="20" height="20" as="geometry" />
        </mxCell>
        <mxCell id="kKIxoyxsqVyTKml1t6NP-2" value="" style="group;fillColor=#f8cecc;strokeColor=#b85450;fontFamily=Nunito;fontSource=https%3A%2F%2Ffonts.googleapis.com%2Fcss%3Ffamily%3DNunito;" parent="hvP7MO_aV2zDYSLjTeLw-1" vertex="1" connectable="0">
          <mxGeometry x="20" y="840" width="620" height="110" as="geometry" />
        </mxCell>
        <mxCell id="kKIxoyxsqVyTKml1t6NP-3" value="&lt;font&gt;msg size&lt;/font&gt;" style="shape=dimension;whiteSpace=wrap;html=1;align=center;points=[];verticalAlign=bottom;spacingBottom=-5;labelBackgroundColor=#ffffff;fontFamily=Nunito;fontSource=https%3A%2F%2Ffonts.googleapis.com%2Fcss%3Ffamily%3DNunito;" parent="kKIxoyxsqVyTKml1t6NP-2" vertex="1">
          <mxGeometry x="240" y="47.14285714285714" width="80" height="62.857142857142854" as="geometry" />
        </mxCell>
        <mxCell id="kKIxoyxsqVyTKml1t6NP-4" value="&lt;font&gt;requestId&lt;/font&gt;" style="shape=dimension;whiteSpace=wrap;html=1;align=center;points=[];verticalAlign=bottom;spacingBottom=-5;labelBackgroundColor=#ffffff;fontFamily=Nunito;fontSource=https%3A%2F%2Ffonts.googleapis.com%2Fcss%3Ffamily%3DNunito;" parent="kKIxoyxsqVyTKml1t6NP-2" vertex="1">
          <mxGeometry y="47.14285714285714" width="160" height="62.857142857142854" as="geometry" />
        </mxCell>
        <mxCell id="kKIxoyxsqVyTKml1t6NP-5" value="&lt;font&gt;error msg&lt;/font&gt;" style="shape=dimension;whiteSpace=wrap;html=1;align=center;points=[];verticalAlign=bottom;spacingBottom=-5;labelBackgroundColor=#ffffff;fontFamily=Nunito;fontSource=https%3A%2F%2Ffonts.googleapis.com%2Fcss%3Ffamily%3DNunito;" parent="kKIxoyxsqVyTKml1t6NP-2" vertex="1">
          <mxGeometry x="320" y="47.14285714285714" width="300" height="62.857142857142854" as="geometry" />
        </mxCell>
        <mxCell id="kKIxoyxsqVyTKml1t6NP-6" value="&lt;font&gt;8&lt;/font&gt;" style="text;html=1;align=center;verticalAlign=middle;resizable=0;points=[];autosize=1;strokeColor=none;fontFamily=Nunito;fontSource=https%3A%2F%2Ffonts.googleapis.com%2Fcss%3Ffamily%3DNunito;" parent="kKIxoyxsqVyTKml1t6NP-2" vertex="1">
          <mxGeometry x="70" y="62.857142857142854" width="20" height="20" as="geometry" />
        </mxCell>
        <mxCell id="kKIxoyxsqVyTKml1t6NP-7" value="4" style="text;html=1;align=center;verticalAlign=middle;resizable=0;points=[];autosize=1;strokeColor=none;fontFamily=Nunito;fontSource=https%3A%2F%2Ffonts.googleapis.com%2Fcss%3Ffamily%3DNunito;" parent="kKIxoyxsqVyTKml1t6NP-2" vertex="1">
          <mxGeometry x="190" y="62.857142857142854" width="20" height="20" as="geometry" />
        </mxCell>
        <mxCell id="kKIxoyxsqVyTKml1t6NP-8" value="msg size" style="text;html=1;align=center;verticalAlign=middle;resizable=0;points=[];autosize=1;strokeColor=none;fontFamily=Nunito;fontSource=https%3A%2F%2Ffonts.googleapis.com%2Fcss%3Ffamily%3DNunito;" parent="kKIxoyxsqVyTKml1t6NP-2" vertex="1">
          <mxGeometry x="440" y="62.857142857142854" width="60" height="20" as="geometry" />
        </mxCell>
        <mxCell id="kKIxoyxsqVyTKml1t6NP-9" value="&lt;font data-font-src=&quot;https://fonts.googleapis.com/css?family=Nunito&quot;&gt;ChunkFetchFailure&lt;/font&gt;" style="text;html=1;align=center;verticalAlign=middle;resizable=0;points=[];autosize=1;strokeColor=none;fontSize=20;fontFamily=Nunito;fontSource=https%3A%2F%2Ffonts.googleapis.com%2Fcss%3Ffamily%3DNunito;" parent="kKIxoyxsqVyTKml1t6NP-2" vertex="1">
          <mxGeometry x="170" width="180" height="30" as="geometry" />
        </mxCell>
        <mxCell id="kKIxoyxsqVyTKml1t6NP-10" value="&lt;font&gt;chunkIndex&lt;/font&gt;" style="shape=dimension;whiteSpace=wrap;html=1;align=center;points=[];verticalAlign=bottom;spacingBottom=-5;labelBackgroundColor=#ffffff;fontFamily=Nunito;fontSource=https%3A%2F%2Ffonts.googleapis.com%2Fcss%3Ffamily%3DNunito;" parent="kKIxoyxsqVyTKml1t6NP-2" vertex="1">
          <mxGeometry x="160" y="47.14285714285714" width="80" height="62.857142857142854" as="geometry" />
        </mxCell>
        <mxCell id="kKIxoyxsqVyTKml1t6NP-11" value="4" style="text;html=1;align=center;verticalAlign=middle;resizable=0;points=[];autosize=1;strokeColor=none;fontFamily=Nunito;fontSource=https%3A%2F%2Ffonts.googleapis.com%2Fcss%3Ffamily%3DNunito;" parent="kKIxoyxsqVyTKml1t6NP-2" vertex="1">
          <mxGeometry x="270" y="62.857142857142854" width="20" height="20" as="geometry" />
        </mxCell>
        <mxCell id="kKIxoyxsqVyTKml1t6NP-12" value="" style="group;fillColor=#f8cecc;strokeColor=#b85450;fontFamily=Nunito;fontSource=https%3A%2F%2Ffonts.googleapis.com%2Fcss%3Ffamily%3DNunito;" parent="hvP7MO_aV2zDYSLjTeLw-1" vertex="1" connectable="0">
          <mxGeometry x="20" y="690" width="540" height="110" as="geometry" />
        </mxCell>
        <mxCell id="kKIxoyxsqVyTKml1t6NP-13" value="&lt;font&gt;streamId&lt;/font&gt;" style="shape=dimension;whiteSpace=wrap;html=1;align=center;points=[];verticalAlign=bottom;spacingBottom=-5;labelBackgroundColor=#ffffff;fontFamily=Nunito;fontSource=https%3A%2F%2Ffonts.googleapis.com%2Fcss%3Ffamily%3DNunito;" parent="kKIxoyxsqVyTKml1t6NP-12" vertex="1">
          <mxGeometry y="47.14285714285714" width="160" height="62.857142857142854" as="geometry" />
        </mxCell>
        <mxCell id="kKIxoyxsqVyTKml1t6NP-14" value="&lt;font&gt;body&lt;/font&gt;" style="shape=dimension;whiteSpace=wrap;html=1;align=center;points=[];verticalAlign=bottom;spacingBottom=-5;labelBackgroundColor=#ffffff;fontFamily=Nunito;fontSource=https%3A%2F%2Ffonts.googleapis.com%2Fcss%3Ffamily%3DNunito;" parent="kKIxoyxsqVyTKml1t6NP-12" vertex="1">
          <mxGeometry x="240" y="47.14285714285714" width="300" height="62.857142857142854" as="geometry" />
        </mxCell>
        <mxCell id="kKIxoyxsqVyTKml1t6NP-15" value="&lt;font&gt;8&lt;/font&gt;" style="text;html=1;align=center;verticalAlign=middle;resizable=0;points=[];autosize=1;strokeColor=none;fontFamily=Nunito;fontSource=https%3A%2F%2Ffonts.googleapis.com%2Fcss%3Ffamily%3DNunito;" parent="kKIxoyxsqVyTKml1t6NP-12" vertex="1">
          <mxGeometry x="70" y="62.857142857142854" width="20" height="20" as="geometry" />
        </mxCell>
        <mxCell id="RQqVBj0FBGKfo5fiOvbJ-25" value="" style="edgeStyle=orthogonalEdgeStyle;rounded=0;orthogonalLoop=1;jettySize=auto;html=1;fontFamily=Nunito;fontSource=https%3A%2F%2Ffonts.googleapis.com%2Fcss%3Ffamily%3DNunito;" edge="1" parent="kKIxoyxsqVyTKml1t6NP-12" source="kKIxoyxsqVyTKml1t6NP-16" target="kKIxoyxsqVyTKml1t6NP-15">
          <mxGeometry relative="1" as="geometry" />
        </mxCell>
        <mxCell id="kKIxoyxsqVyTKml1t6NP-16" value="4" style="text;html=1;align=center;verticalAlign=middle;resizable=0;points=[];autosize=1;strokeColor=none;fontFamily=Nunito;fontSource=https%3A%2F%2Ffonts.googleapis.com%2Fcss%3Ffamily%3DNunito;" parent="kKIxoyxsqVyTKml1t6NP-12" vertex="1">
          <mxGeometry x="190" y="62.857142857142854" width="20" height="20" as="geometry" />
        </mxCell>
        <mxCell id="kKIxoyxsqVyTKml1t6NP-17" value="body size" style="text;html=1;align=center;verticalAlign=middle;resizable=0;points=[];autosize=1;strokeColor=none;fontFamily=Nunito;fontSource=https%3A%2F%2Ffonts.googleapis.com%2Fcss%3Ffamily%3DNunito;" parent="kKIxoyxsqVyTKml1t6NP-12" vertex="1">
          <mxGeometry x="355" y="62.857142857142854" width="70" height="20" as="geometry" />
        </mxCell>
        <mxCell id="kKIxoyxsqVyTKml1t6NP-18" value="ChunkFetchSuccess" style="text;html=1;align=center;verticalAlign=middle;resizable=0;points=[];autosize=1;strokeColor=none;fontSize=20;fontFamily=Nunito;fontSource=https%3A%2F%2Ffonts.googleapis.com%2Fcss%3Ffamily%3DNunito;" parent="kKIxoyxsqVyTKml1t6NP-12" vertex="1">
          <mxGeometry x="165" width="190" height="30" as="geometry" />
        </mxCell>
        <mxCell id="kKIxoyxsqVyTKml1t6NP-19" value="&lt;font&gt;chunkIndex&lt;/font&gt;" style="shape=dimension;whiteSpace=wrap;html=1;align=center;points=[];verticalAlign=bottom;spacingBottom=-5;labelBackgroundColor=#ffffff;fontFamily=Nunito;fontSource=https%3A%2F%2Ffonts.googleapis.com%2Fcss%3Ffamily%3DNunito;" parent="kKIxoyxsqVyTKml1t6NP-12" vertex="1">
          <mxGeometry x="160" y="47.14285714285714" width="80" height="62.857142857142854" as="geometry" />
        </mxCell>
        <mxCell id="kKIxoyxsqVyTKml1t6NP-20" value="" style="group;fillColor=#f8cecc;strokeColor=#b85450;fontFamily=Nunito;fontSource=https%3A%2F%2Ffonts.googleapis.com%2Fcss%3Ffamily%3DNunito;" parent="hvP7MO_aV2zDYSLjTeLw-1" vertex="1" connectable="0">
          <mxGeometry x="20" y="540" width="480" height="110" as="geometry" />
        </mxCell>
        <mxCell id="kKIxoyxsqVyTKml1t6NP-21" value="&lt;font&gt;chunkIndex&lt;/font&gt;" style="shape=dimension;whiteSpace=wrap;html=1;align=center;points=[];verticalAlign=bottom;spacingBottom=-5;labelBackgroundColor=#ffffff;fontFamily=Nunito;fontSource=https%3A%2F%2Ffonts.googleapis.com%2Fcss%3Ffamily%3DNunito;" parent="kKIxoyxsqVyTKml1t6NP-20" vertex="1">
          <mxGeometry x="320" y="47.14285714285714" width="160" height="62.85714285714286" as="geometry" />
        </mxCell>
        <mxCell id="kKIxoyxsqVyTKml1t6NP-22" value="&lt;font data-font-src=&quot;https://fonts.googleapis.com/css?family=Nunito&quot;&gt;streamId&lt;/font&gt;" style="shape=dimension;whiteSpace=wrap;html=1;align=center;points=[];verticalAlign=bottom;spacingBottom=-5;labelBackgroundColor=#ffffff;fontFamily=Nunito;fontSource=https%3A%2F%2Ffonts.googleapis.com%2Fcss%3Ffamily%3DNunito;" parent="kKIxoyxsqVyTKml1t6NP-20" vertex="1">
          <mxGeometry y="47.14285714285714" width="320" height="62.85714285714286" as="geometry" />
        </mxCell>
        <mxCell id="kKIxoyxsqVyTKml1t6NP-23" value="&lt;font&gt;8&lt;/font&gt;" style="text;html=1;align=center;verticalAlign=middle;resizable=0;points=[];autosize=1;strokeColor=none;fontFamily=Nunito;fontSource=https%3A%2F%2Ffonts.googleapis.com%2Fcss%3Ffamily%3DNunito;" parent="kKIxoyxsqVyTKml1t6NP-20" vertex="1">
          <mxGeometry x="70" y="62.85714285714286" width="20" height="20" as="geometry" />
        </mxCell>
        <mxCell id="kKIxoyxsqVyTKml1t6NP-24" value="4" style="text;html=1;align=center;verticalAlign=middle;resizable=0;points=[];autosize=1;strokeColor=none;fontFamily=Nunito;fontSource=https%3A%2F%2Ffonts.googleapis.com%2Fcss%3Ffamily%3DNunito;" parent="kKIxoyxsqVyTKml1t6NP-20" vertex="1">
          <mxGeometry x="390" y="62.85714285714286" width="20" height="20" as="geometry" />
        </mxCell>
        <mxCell id="kKIxoyxsqVyTKml1t6NP-25" value="&lt;font data-font-src=&quot;https://fonts.googleapis.com/css?family=Nunito&quot;&gt;ChunkFetchRequest&lt;/font&gt;" style="text;html=1;align=center;verticalAlign=middle;resizable=0;points=[];autosize=1;strokeColor=none;fontSize=20;fontFamily=Nunito;fontSource=https%3A%2F%2Ffonts.googleapis.com%2Fcss%3Ffamily%3DNunito;" parent="kKIxoyxsqVyTKml1t6NP-20" vertex="1">
          <mxGeometry x="140" width="200" height="30" as="geometry" />
        </mxCell>
        <mxCell id="QbxbpcJ4an9Vn-Q8Qio1-25" value="&lt;font&gt;body size&lt;/font&gt;" style="shape=dimension;whiteSpace=wrap;html=1;align=center;points=[];verticalAlign=bottom;spacingBottom=-5;labelBackgroundColor=#ffffff;fontFamily=Nunito;fontSource=https%3A%2F%2Ffonts.googleapis.com%2Fcss%3Ffamily%3DNunito;" parent="hvP7MO_aV2zDYSLjTeLw-1" vertex="1">
          <mxGeometry x="180" y="137.1428571428571" width="80" height="62.857142857142854" as="geometry" />
        </mxCell>
        <mxCell id="QbxbpcJ4an9Vn-Q8Qio1-26" value="&lt;font data-font-src=&quot;https://fonts.googleapis.com/css?family=Nunito&quot;&gt;requestId&lt;/font&gt;" style="shape=dimension;whiteSpace=wrap;html=1;align=center;points=[];verticalAlign=bottom;spacingBottom=-5;labelBackgroundColor=#ffffff;fontFamily=Nunito;fontSource=https%3A%2F%2Ffonts.googleapis.com%2Fcss%3Ffamily%3DNunito;" parent="hvP7MO_aV2zDYSLjTeLw-1" vertex="1">
          <mxGeometry x="20" y="137.1428571428571" width="160" height="62.857142857142854" as="geometry" />
        </mxCell>
        <mxCell id="QbxbpcJ4an9Vn-Q8Qio1-27" value="&lt;font&gt;body&lt;/font&gt;" style="shape=dimension;whiteSpace=wrap;html=1;align=center;points=[];verticalAlign=bottom;spacingBottom=-5;labelBackgroundColor=#ffffff;fontFamily=Nunito;fontSource=https%3A%2F%2Ffonts.googleapis.com%2Fcss%3Ffamily%3DNunito;" parent="hvP7MO_aV2zDYSLjTeLw-1" vertex="1">
          <mxGeometry x="260" y="137.1428571428571" width="300" height="62.857142857142854" as="geometry" />
        </mxCell>
        <mxCell id="QbxbpcJ4an9Vn-Q8Qio1-28" value="&lt;font&gt;8&lt;/font&gt;" style="text;html=1;align=center;verticalAlign=middle;resizable=0;points=[];autosize=1;strokeColor=none;fontFamily=Nunito;fontSource=https%3A%2F%2Ffonts.googleapis.com%2Fcss%3Ffamily%3DNunito;" parent="hvP7MO_aV2zDYSLjTeLw-1" vertex="1">
          <mxGeometry x="90" y="152.85714285714283" width="20" height="20" as="geometry" />
        </mxCell>
        <mxCell id="QbxbpcJ4an9Vn-Q8Qio1-29" value="4" style="text;html=1;align=center;verticalAlign=middle;resizable=0;points=[];autosize=1;strokeColor=none;fontFamily=Nunito;fontSource=https%3A%2F%2Ffonts.googleapis.com%2Fcss%3Ffamily%3DNunito;" parent="hvP7MO_aV2zDYSLjTeLw-1" vertex="1">
          <mxGeometry x="210" y="152.85714285714283" width="20" height="20" as="geometry" />
        </mxCell>
        <mxCell id="QbxbpcJ4an9Vn-Q8Qio1-30" value="body size" style="text;html=1;align=center;verticalAlign=middle;resizable=0;points=[];autosize=1;strokeColor=none;fontFamily=Nunito;fontSource=https%3A%2F%2Ffonts.googleapis.com%2Fcss%3Ffamily%3DNunito;" parent="hvP7MO_aV2zDYSLjTeLw-1" vertex="1">
          <mxGeometry x="375" y="152.85714285714283" width="70" height="20" as="geometry" />
        </mxCell>
        <mxCell id="QbxbpcJ4an9Vn-Q8Qio1-31" value="&lt;font data-font-src=&quot;https://fonts.googleapis.com/css?family=Nunito&quot;&gt;RpcRequest&lt;/font&gt;" style="text;html=1;align=center;verticalAlign=middle;resizable=0;points=[];autosize=1;strokeColor=none;fontSize=20;fontFamily=Nunito;fontSource=https%3A%2F%2Ffonts.googleapis.com%2Fcss%3Ffamily%3DNunito;" parent="hvP7MO_aV2zDYSLjTeLw-1" vertex="1">
          <mxGeometry x="220" y="90" width="120" height="30" as="geometry" />
        </mxCell>
        <mxCell id="RQqVBj0FBGKfo5fiOvbJ-31" value="Message Protocol" style="swimlane;shadow=0;fillColor=#E1D5E7;startSize=70;fontSize=30;fontFamily=Nunito;fontSource=https%3A%2F%2Ffonts.googleapis.com%2Fcss%3Ffamily%3DNunito;" vertex="1" parent="hvP7MO_aV2zDYSLjTeLw-1">
          <mxGeometry width="1710" height="970" as="geometry" />
        </mxCell>
      </root>
    </mxGraphModel>
  </diagram>
  <diagram id="EXQ3JtJRfhPHQhhRD-rc" name="Stream">
    <mxGraphModel dx="1298" dy="764" grid="1" gridSize="10" guides="1" tooltips="1" connect="1" arrows="1" fold="1" page="1" pageScale="1" pageWidth="4681" pageHeight="3300" math="0" shadow="0">
      <root>
        <mxCell id="1P036L8csM9Qdpl9nd-F-0" />
        <mxCell id="1P036L8csM9Qdpl9nd-F-1" parent="1P036L8csM9Qdpl9nd-F-0" />
        <mxCell id="yKMv53KU2Zkw0SX4_lTf-28" value="" style="group;fontFamily=Nunito;fontSource=https%3A%2F%2Ffonts.googleapis.com%2Fcss%3Ffamily%3DNunito;" parent="1P036L8csM9Qdpl9nd-F-1" vertex="1" connectable="0">
          <mxGeometry x="70" y="90" width="460" height="70" as="geometry" />
        </mxCell>
        <mxCell id="yKMv53KU2Zkw0SX4_lTf-10" value="streamId size" style="shape=dimension;whiteSpace=wrap;html=1;align=center;points=[];verticalAlign=bottom;spacingBottom=-5;labelBackgroundColor=#ffffff;fontFamily=Nunito;fontSource=https%3A%2F%2Ffonts.googleapis.com%2Fcss%3Ffamily%3DNunito;" parent="yKMv53KU2Zkw0SX4_lTf-28" vertex="1">
          <mxGeometry y="30" width="160" height="40" as="geometry" />
        </mxCell>
        <mxCell id="yKMv53KU2Zkw0SX4_lTf-12" value="&lt;font&gt;streamId&lt;/font&gt;" style="shape=dimension;whiteSpace=wrap;html=1;align=center;points=[];verticalAlign=bottom;spacingBottom=-5;labelBackgroundColor=#ffffff;fontFamily=Nunito;fontSource=https%3A%2F%2Ffonts.googleapis.com%2Fcss%3Ffamily%3DNunito;" parent="yKMv53KU2Zkw0SX4_lTf-28" vertex="1">
          <mxGeometry x="160" y="30" width="300" height="40" as="geometry" />
        </mxCell>
        <mxCell id="yKMv53KU2Zkw0SX4_lTf-16" value="&lt;font data-font-src=&quot;https://fonts.googleapis.com/css?family=Nunito&quot;&gt;StreamRequest&lt;/font&gt;" style="text;html=1;align=center;verticalAlign=middle;resizable=0;points=[];autosize=1;strokeColor=none;fontSize=20;fontFamily=Nunito;fontSource=https%3A%2F%2Ffonts.googleapis.com%2Fcss%3Ffamily%3DNunito;" parent="yKMv53KU2Zkw0SX4_lTf-28" vertex="1">
          <mxGeometry x="150" width="150" height="30" as="geometry" />
        </mxCell>
        <mxCell id="yKMv53KU2Zkw0SX4_lTf-26" value="4" style="text;html=1;align=center;verticalAlign=middle;resizable=0;points=[];autosize=1;strokeColor=none;fontFamily=Nunito;fontSource=https%3A%2F%2Ffonts.googleapis.com%2Fcss%3Ffamily%3DNunito;" parent="yKMv53KU2Zkw0SX4_lTf-28" vertex="1">
          <mxGeometry x="70" y="40" width="20" height="20" as="geometry" />
        </mxCell>
        <mxCell id="yKMv53KU2Zkw0SX4_lTf-27" value="steamId size" style="text;html=1;align=center;verticalAlign=middle;resizable=0;points=[];autosize=1;strokeColor=none;fontFamily=Nunito;fontSource=https%3A%2F%2Ffonts.googleapis.com%2Fcss%3Ffamily%3DNunito;" parent="yKMv53KU2Zkw0SX4_lTf-28" vertex="1">
          <mxGeometry x="270" y="40" width="80" height="20" as="geometry" />
        </mxCell>
        <mxCell id="yKMv53KU2Zkw0SX4_lTf-53" value="" style="group;fontFamily=Nunito;fontSource=https%3A%2F%2Ffonts.googleapis.com%2Fcss%3Ffamily%3DNunito;" parent="1P036L8csM9Qdpl9nd-F-1" vertex="1" connectable="0">
          <mxGeometry x="60" y="480" width="760" height="70" as="geometry" />
        </mxCell>
        <mxCell id="yKMv53KU2Zkw0SX4_lTf-41" value="streamId size" style="shape=dimension;whiteSpace=wrap;html=1;align=center;points=[];verticalAlign=bottom;spacingBottom=-5;labelBackgroundColor=#ffffff;fontFamily=Nunito;fontSource=https%3A%2F%2Ffonts.googleapis.com%2Fcss%3Ffamily%3DNunito;" parent="yKMv53KU2Zkw0SX4_lTf-53" vertex="1">
          <mxGeometry y="30" width="160" height="40" as="geometry" />
        </mxCell>
        <mxCell id="yKMv53KU2Zkw0SX4_lTf-42" value="&lt;font&gt;streamId&lt;/font&gt;" style="shape=dimension;whiteSpace=wrap;html=1;align=center;points=[];verticalAlign=bottom;spacingBottom=-5;labelBackgroundColor=#ffffff;fontFamily=Nunito;fontSource=https%3A%2F%2Ffonts.googleapis.com%2Fcss%3Ffamily%3DNunito;" parent="yKMv53KU2Zkw0SX4_lTf-53" vertex="1">
          <mxGeometry x="160" y="30" width="220" height="40" as="geometry" />
        </mxCell>
        <mxCell id="yKMv53KU2Zkw0SX4_lTf-43" value="&lt;font data-font-src=&quot;https://fonts.googleapis.com/css?family=Nunito&quot;&gt;StreamFailure&lt;/font&gt;" style="text;html=1;align=center;verticalAlign=middle;resizable=0;points=[];autosize=1;strokeColor=none;fontSize=20;fontFamily=Nunito;fontSource=https%3A%2F%2Ffonts.googleapis.com%2Fcss%3Ffamily%3DNunito;" parent="yKMv53KU2Zkw0SX4_lTf-53" vertex="1">
          <mxGeometry x="310" width="140" height="30" as="geometry" />
        </mxCell>
        <mxCell id="yKMv53KU2Zkw0SX4_lTf-44" value="4" style="text;html=1;align=center;verticalAlign=middle;resizable=0;points=[];autosize=1;strokeColor=none;fontFamily=Nunito;fontSource=https%3A%2F%2Ffonts.googleapis.com%2Fcss%3Ffamily%3DNunito;" parent="yKMv53KU2Zkw0SX4_lTf-53" vertex="1">
          <mxGeometry x="70" y="40" width="20" height="20" as="geometry" />
        </mxCell>
        <mxCell id="yKMv53KU2Zkw0SX4_lTf-45" value="steamId size" style="text;html=1;align=center;verticalAlign=middle;resizable=0;points=[];autosize=1;strokeColor=none;fontFamily=Nunito;fontSource=https%3A%2F%2Ffonts.googleapis.com%2Fcss%3Ffamily%3DNunito;" parent="yKMv53KU2Zkw0SX4_lTf-53" vertex="1">
          <mxGeometry x="230" y="40" width="80" height="20" as="geometry" />
        </mxCell>
        <mxCell id="yKMv53KU2Zkw0SX4_lTf-48" value="error size" style="shape=dimension;whiteSpace=wrap;html=1;align=center;points=[];verticalAlign=bottom;spacingBottom=-5;labelBackgroundColor=#ffffff;fontFamily=Nunito;fontSource=https%3A%2F%2Ffonts.googleapis.com%2Fcss%3Ffamily%3DNunito;" parent="yKMv53KU2Zkw0SX4_lTf-53" vertex="1">
          <mxGeometry x="380" y="30" width="160" height="40" as="geometry" />
        </mxCell>
        <mxCell id="yKMv53KU2Zkw0SX4_lTf-49" value="&lt;font&gt;error msg&lt;/font&gt;" style="shape=dimension;whiteSpace=wrap;html=1;align=center;points=[];verticalAlign=bottom;spacingBottom=-5;labelBackgroundColor=#ffffff;fontFamily=Nunito;fontSource=https%3A%2F%2Ffonts.googleapis.com%2Fcss%3Ffamily%3DNunito;" parent="yKMv53KU2Zkw0SX4_lTf-53" vertex="1">
          <mxGeometry x="540" y="30" width="220" height="40" as="geometry" />
        </mxCell>
        <mxCell id="yKMv53KU2Zkw0SX4_lTf-51" value="4" style="text;html=1;align=center;verticalAlign=middle;resizable=0;points=[];autosize=1;strokeColor=none;fontFamily=Nunito;fontSource=https%3A%2F%2Ffonts.googleapis.com%2Fcss%3Ffamily%3DNunito;" parent="yKMv53KU2Zkw0SX4_lTf-53" vertex="1">
          <mxGeometry x="450" y="40" width="20" height="20" as="geometry" />
        </mxCell>
        <mxCell id="yKMv53KU2Zkw0SX4_lTf-52" value="error size" style="text;html=1;align=center;verticalAlign=middle;resizable=0;points=[];autosize=1;strokeColor=none;fontFamily=Nunito;fontSource=https%3A%2F%2Ffonts.googleapis.com%2Fcss%3Ffamily%3DNunito;" parent="yKMv53KU2Zkw0SX4_lTf-53" vertex="1">
          <mxGeometry x="620" y="40" width="60" height="20" as="geometry" />
        </mxCell>
        <mxCell id="MfQn2yXhhnkVlbMzkwjQ-6" value="" style="group" parent="1P036L8csM9Qdpl9nd-F-1" vertex="1" connectable="0">
          <mxGeometry x="60" y="220" width="920" height="110" as="geometry" />
        </mxCell>
        <mxCell id="yKMv53KU2Zkw0SX4_lTf-30" value="streamId size" style="shape=dimension;whiteSpace=wrap;html=1;align=center;points=[];verticalAlign=bottom;spacingBottom=-5;labelBackgroundColor=#ffffff;fontFamily=Nunito;fontSource=https%3A%2F%2Ffonts.googleapis.com%2Fcss%3Ffamily%3DNunito;" parent="MfQn2yXhhnkVlbMzkwjQ-6" vertex="1">
          <mxGeometry y="70" width="160" height="40" as="geometry" />
        </mxCell>
        <mxCell id="yKMv53KU2Zkw0SX4_lTf-31" value="&lt;font&gt;streamId&lt;/font&gt;" style="shape=dimension;whiteSpace=wrap;html=1;align=center;points=[];verticalAlign=bottom;spacingBottom=-5;labelBackgroundColor=#ffffff;fontFamily=Nunito;fontSource=https%3A%2F%2Ffonts.googleapis.com%2Fcss%3Ffamily%3DNunito;" parent="MfQn2yXhhnkVlbMzkwjQ-6" vertex="1">
          <mxGeometry x="160" y="70" width="220" height="40" as="geometry" />
        </mxCell>
        <mxCell id="yKMv53KU2Zkw0SX4_lTf-32" value="&lt;font data-font-src=&quot;https://fonts.googleapis.com/css?family=Nunito&quot;&gt;StreamResponse&lt;/font&gt;" style="text;html=1;align=center;verticalAlign=middle;resizable=0;points=[];autosize=1;strokeColor=none;fontSize=20;fontFamily=Nunito;fontSource=https%3A%2F%2Ffonts.googleapis.com%2Fcss%3Ffamily%3DNunito;" parent="MfQn2yXhhnkVlbMzkwjQ-6" vertex="1">
          <mxGeometry x="250" y="40" width="170" height="30" as="geometry" />
        </mxCell>
        <mxCell id="yKMv53KU2Zkw0SX4_lTf-33" value="4" style="text;html=1;align=center;verticalAlign=middle;resizable=0;points=[];autosize=1;strokeColor=none;fontFamily=Nunito;fontSource=https%3A%2F%2Ffonts.googleapis.com%2Fcss%3Ffamily%3DNunito;" parent="MfQn2yXhhnkVlbMzkwjQ-6" vertex="1">
          <mxGeometry x="70" y="80" width="20" height="20" as="geometry" />
        </mxCell>
        <mxCell id="yKMv53KU2Zkw0SX4_lTf-34" value="steamId size" style="text;html=1;align=center;verticalAlign=middle;resizable=0;points=[];autosize=1;strokeColor=none;fontFamily=Nunito;fontSource=https%3A%2F%2Ffonts.googleapis.com%2Fcss%3Ffamily%3DNunito;" parent="MfQn2yXhhnkVlbMzkwjQ-6" vertex="1">
          <mxGeometry x="230" y="80" width="80" height="20" as="geometry" />
        </mxCell>
        <mxCell id="yKMv53KU2Zkw0SX4_lTf-36" value="stream byteCount" style="shape=dimension;whiteSpace=wrap;html=1;align=center;points=[];verticalAlign=bottom;spacingBottom=-5;labelBackgroundColor=#ffffff;fontFamily=Nunito;fontSource=https%3A%2F%2Ffonts.googleapis.com%2Fcss%3Ffamily%3DNunito;" parent="MfQn2yXhhnkVlbMzkwjQ-6" vertex="1">
          <mxGeometry x="380" y="70" width="320" height="40" as="geometry" />
        </mxCell>
        <mxCell id="yKMv53KU2Zkw0SX4_lTf-38" value="8" style="text;html=1;align=center;verticalAlign=middle;resizable=0;points=[];autosize=1;strokeColor=none;fontFamily=Nunito;fontSource=https%3A%2F%2Ffonts.googleapis.com%2Fcss%3Ffamily%3DNunito;" parent="MfQn2yXhhnkVlbMzkwjQ-6" vertex="1">
          <mxGeometry x="530" y="80" width="20" height="20" as="geometry" />
        </mxCell>
        <mxCell id="MfQn2yXhhnkVlbMzkwjQ-0" value="&lt;font&gt;stream data&lt;/font&gt;" style="shape=dimension;whiteSpace=wrap;html=1;align=center;points=[];verticalAlign=bottom;spacingBottom=-5;labelBackgroundColor=#ffffff;fontFamily=Nunito;fontSource=https%3A%2F%2Ffonts.googleapis.com%2Fcss%3Ffamily%3DNunito;" parent="MfQn2yXhhnkVlbMzkwjQ-6" vertex="1">
          <mxGeometry x="700" y="70" width="220" height="40" as="geometry" />
        </mxCell>
        <mxCell id="MfQn2yXhhnkVlbMzkwjQ-3" value="stream bytecCount" style="text;html=1;align=center;verticalAlign=middle;resizable=0;points=[];autosize=1;strokeColor=none;fontFamily=Nunito;fontSource=https%3A%2F%2Ffonts.googleapis.com%2Fcss%3Ffamily%3DNunito;" parent="MfQn2yXhhnkVlbMzkwjQ-6" vertex="1">
          <mxGeometry x="750" y="80" width="120" height="20" as="geometry" />
        </mxCell>
        <mxCell id="MfQn2yXhhnkVlbMzkwjQ-4" value="不包含在frame length内&lt;br&gt;isBodyInFrame = false" style="shape=callout;whiteSpace=wrap;html=1;perimeter=calloutPerimeter;shadow=0;sketch=1;fillColor=#dae8fc;strokeColor=#6c8ebf;fontFamily=Nunito;fontSource=https%3A%2F%2Ffonts.googleapis.com%2Fcss%3Ffamily%3DNunito;" parent="MfQn2yXhhnkVlbMzkwjQ-6" vertex="1">
          <mxGeometry x="750" width="150" height="80" as="geometry" />
        </mxCell>
      </root>
    </mxGraphModel>
  </diagram>
  <diagram id="jsnHvvOr5sqU0f0DWK4V" name="ChunkFetch">
    <mxGraphModel dx="1298" dy="764" grid="1" gridSize="10" guides="1" tooltips="1" connect="1" arrows="1" fold="1" page="1" pageScale="1" pageWidth="4681" pageHeight="3300" math="0" shadow="0">
      <root>
        <mxCell id="CFjn6XpaOHFBVFMEeRUY-0" />
        <mxCell id="CFjn6XpaOHFBVFMEeRUY-1" parent="CFjn6XpaOHFBVFMEeRUY-0" />
        <mxCell id="g41afeXXm7fq4fGSFbC3-6" value="" style="group" parent="CFjn6XpaOHFBVFMEeRUY-1" vertex="1" connectable="0">
          <mxGeometry x="80" y="80" width="620" height="290" as="geometry" />
        </mxCell>
        <mxCell id="g41afeXXm7fq4fGSFbC3-3" value="" style="group" parent="g41afeXXm7fq4fGSFbC3-6" vertex="1" connectable="0">
          <mxGeometry y="220" width="620" height="70" as="geometry" />
        </mxCell>
        <mxCell id="73Q98SrHmq1DEnhKEfCo-2" value="&lt;font&gt;msg size&lt;/font&gt;" style="shape=dimension;whiteSpace=wrap;html=1;align=center;points=[];verticalAlign=bottom;spacingBottom=-5;labelBackgroundColor=#ffffff;fontFamily=Nunito;fontSource=https://fonts.googleapis.com/css?family=Nunito;" parent="g41afeXXm7fq4fGSFbC3-3" vertex="1">
          <mxGeometry x="240" y="30" width="80" height="40" as="geometry" />
        </mxCell>
        <mxCell id="73Q98SrHmq1DEnhKEfCo-3" value="&lt;font&gt;requestId&lt;/font&gt;" style="shape=dimension;whiteSpace=wrap;html=1;align=center;points=[];verticalAlign=bottom;spacingBottom=-5;labelBackgroundColor=#ffffff;fontFamily=Nunito;fontSource=https://fonts.googleapis.com/css?family=Nunito;" parent="g41afeXXm7fq4fGSFbC3-3" vertex="1">
          <mxGeometry y="30" width="160" height="40" as="geometry" />
        </mxCell>
        <mxCell id="73Q98SrHmq1DEnhKEfCo-4" value="&lt;font&gt;error msg&lt;/font&gt;" style="shape=dimension;whiteSpace=wrap;html=1;align=center;points=[];verticalAlign=bottom;spacingBottom=-5;labelBackgroundColor=#ffffff;fontFamily=Nunito;fontSource=https://fonts.googleapis.com/css?family=Nunito;" parent="g41afeXXm7fq4fGSFbC3-3" vertex="1">
          <mxGeometry x="320" y="30" width="300" height="40" as="geometry" />
        </mxCell>
        <mxCell id="73Q98SrHmq1DEnhKEfCo-5" value="&lt;font&gt;8&lt;/font&gt;" style="text;html=1;align=center;verticalAlign=middle;resizable=0;points=[];autosize=1;strokeColor=none;fontFamily=Nunito;fontSource=https://fonts.googleapis.com/css?family=Nunito;" parent="g41afeXXm7fq4fGSFbC3-3" vertex="1">
          <mxGeometry x="70" y="40" width="20" height="20" as="geometry" />
        </mxCell>
        <mxCell id="73Q98SrHmq1DEnhKEfCo-6" value="4" style="text;html=1;align=center;verticalAlign=middle;resizable=0;points=[];autosize=1;strokeColor=none;fontFamily=Nunito;fontSource=https://fonts.googleapis.com/css?family=Nunito;" parent="g41afeXXm7fq4fGSFbC3-3" vertex="1">
          <mxGeometry x="190" y="40" width="20" height="20" as="geometry" />
        </mxCell>
        <mxCell id="73Q98SrHmq1DEnhKEfCo-7" value="msg size" style="text;html=1;align=center;verticalAlign=middle;resizable=0;points=[];autosize=1;strokeColor=none;fontFamily=Nunito;fontSource=https://fonts.googleapis.com/css?family=Nunito;" parent="g41afeXXm7fq4fGSFbC3-3" vertex="1">
          <mxGeometry x="440" y="40" width="60" height="20" as="geometry" />
        </mxCell>
        <mxCell id="73Q98SrHmq1DEnhKEfCo-8" value="&lt;font data-font-src=&quot;https://fonts.googleapis.com/css?family=Nunito&quot;&gt;ChunkFetchFailure&lt;/font&gt;" style="text;html=1;align=center;verticalAlign=middle;resizable=0;points=[];autosize=1;strokeColor=none;fontSize=20;fontFamily=Nunito;fontSource=https://fonts.googleapis.com/css?family=Nunito;" parent="g41afeXXm7fq4fGSFbC3-3" vertex="1">
          <mxGeometry x="170" width="180" height="30" as="geometry" />
        </mxCell>
        <mxCell id="73Q98SrHmq1DEnhKEfCo-18" value="&lt;font&gt;chunkIndex&lt;/font&gt;" style="shape=dimension;whiteSpace=wrap;html=1;align=center;points=[];verticalAlign=bottom;spacingBottom=-5;labelBackgroundColor=#ffffff;fontFamily=Nunito;fontSource=https://fonts.googleapis.com/css?family=Nunito;" parent="g41afeXXm7fq4fGSFbC3-3" vertex="1">
          <mxGeometry x="160" y="30" width="80" height="40" as="geometry" />
        </mxCell>
        <mxCell id="g41afeXXm7fq4fGSFbC3-2" value="4" style="text;html=1;align=center;verticalAlign=middle;resizable=0;points=[];autosize=1;strokeColor=none;fontFamily=Nunito;" parent="g41afeXXm7fq4fGSFbC3-3" vertex="1">
          <mxGeometry x="270" y="40" width="20" height="20" as="geometry" />
        </mxCell>
        <mxCell id="g41afeXXm7fq4fGSFbC3-4" value="" style="group" parent="g41afeXXm7fq4fGSFbC3-6" vertex="1" connectable="0">
          <mxGeometry y="110" width="540" height="70" as="geometry" />
        </mxCell>
        <mxCell id="73Q98SrHmq1DEnhKEfCo-19" value="&lt;font&gt;streamId&lt;/font&gt;" style="shape=dimension;whiteSpace=wrap;html=1;align=center;points=[];verticalAlign=bottom;spacingBottom=-5;labelBackgroundColor=#ffffff;fontFamily=Nunito;fontSource=https://fonts.googleapis.com/css?family=Nunito;" parent="g41afeXXm7fq4fGSFbC3-4" vertex="1">
          <mxGeometry y="30" width="160" height="40" as="geometry" />
        </mxCell>
        <mxCell id="73Q98SrHmq1DEnhKEfCo-20" value="&lt;font&gt;body&lt;/font&gt;" style="shape=dimension;whiteSpace=wrap;html=1;align=center;points=[];verticalAlign=bottom;spacingBottom=-5;labelBackgroundColor=#ffffff;fontFamily=Nunito;fontSource=https://fonts.googleapis.com/css?family=Nunito;" parent="g41afeXXm7fq4fGSFbC3-4" vertex="1">
          <mxGeometry x="240" y="30" width="300" height="40" as="geometry" />
        </mxCell>
        <mxCell id="73Q98SrHmq1DEnhKEfCo-21" value="&lt;font&gt;8&lt;/font&gt;" style="text;html=1;align=center;verticalAlign=middle;resizable=0;points=[];autosize=1;strokeColor=none;fontFamily=Nunito;fontSource=https://fonts.googleapis.com/css?family=Nunito;" parent="g41afeXXm7fq4fGSFbC3-4" vertex="1">
          <mxGeometry x="70" y="40" width="20" height="20" as="geometry" />
        </mxCell>
        <mxCell id="73Q98SrHmq1DEnhKEfCo-22" value="4" style="text;html=1;align=center;verticalAlign=middle;resizable=0;points=[];autosize=1;strokeColor=none;fontFamily=Nunito;fontSource=https://fonts.googleapis.com/css?family=Nunito;" parent="g41afeXXm7fq4fGSFbC3-4" vertex="1">
          <mxGeometry x="190" y="40" width="20" height="20" as="geometry" />
        </mxCell>
        <mxCell id="73Q98SrHmq1DEnhKEfCo-23" value="body size" style="text;html=1;align=center;verticalAlign=middle;resizable=0;points=[];autosize=1;strokeColor=none;fontFamily=Nunito;fontSource=https://fonts.googleapis.com/css?family=Nunito;" parent="g41afeXXm7fq4fGSFbC3-4" vertex="1">
          <mxGeometry x="355" y="40" width="70" height="20" as="geometry" />
        </mxCell>
        <mxCell id="73Q98SrHmq1DEnhKEfCo-24" value="ChunkFetchSuccess" style="text;html=1;align=center;verticalAlign=middle;resizable=0;points=[];autosize=1;strokeColor=none;fontSize=20;fontFamily=Nunito;fontSource=https://fonts.googleapis.com/css?family=Nunito;" parent="g41afeXXm7fq4fGSFbC3-4" vertex="1">
          <mxGeometry x="165" width="190" height="30" as="geometry" />
        </mxCell>
        <mxCell id="g41afeXXm7fq4fGSFbC3-0" value="&lt;font&gt;chunkIndex&lt;/font&gt;" style="shape=dimension;whiteSpace=wrap;html=1;align=center;points=[];verticalAlign=bottom;spacingBottom=-5;labelBackgroundColor=#ffffff;fontFamily=Nunito;fontSource=https://fonts.googleapis.com/css?family=Nunito;" parent="g41afeXXm7fq4fGSFbC3-4" vertex="1">
          <mxGeometry x="160" y="30" width="80" height="40" as="geometry" />
        </mxCell>
        <mxCell id="g41afeXXm7fq4fGSFbC3-5" value="" style="group" parent="g41afeXXm7fq4fGSFbC3-6" vertex="1" connectable="0">
          <mxGeometry width="480" height="70" as="geometry" />
        </mxCell>
        <mxCell id="73Q98SrHmq1DEnhKEfCo-10" value="&lt;font&gt;chunkIndex&lt;/font&gt;" style="shape=dimension;whiteSpace=wrap;html=1;align=center;points=[];verticalAlign=bottom;spacingBottom=-5;labelBackgroundColor=#ffffff;fontFamily=Nunito;fontSource=https://fonts.googleapis.com/css?family=Nunito;" parent="g41afeXXm7fq4fGSFbC3-5" vertex="1">
          <mxGeometry x="320" y="30" width="160" height="40" as="geometry" />
        </mxCell>
        <mxCell id="73Q98SrHmq1DEnhKEfCo-11" value="&lt;font data-font-src=&quot;https://fonts.googleapis.com/css?family=Nunito&quot;&gt;streamId&lt;/font&gt;" style="shape=dimension;whiteSpace=wrap;html=1;align=center;points=[];verticalAlign=bottom;spacingBottom=-5;labelBackgroundColor=#ffffff;fontFamily=Nunito;fontSource=https://fonts.googleapis.com/css?family=Nunito;" parent="g41afeXXm7fq4fGSFbC3-5" vertex="1">
          <mxGeometry y="30" width="320" height="40" as="geometry" />
        </mxCell>
        <mxCell id="73Q98SrHmq1DEnhKEfCo-13" value="&lt;font&gt;8&lt;/font&gt;" style="text;html=1;align=center;verticalAlign=middle;resizable=0;points=[];autosize=1;strokeColor=none;fontFamily=Nunito;fontSource=https://fonts.googleapis.com/css?family=Nunito;" parent="g41afeXXm7fq4fGSFbC3-5" vertex="1">
          <mxGeometry x="70" y="40" width="20" height="20" as="geometry" />
        </mxCell>
        <mxCell id="73Q98SrHmq1DEnhKEfCo-14" value="4" style="text;html=1;align=center;verticalAlign=middle;resizable=0;points=[];autosize=1;strokeColor=none;fontFamily=Nunito;fontSource=https://fonts.googleapis.com/css?family=Nunito;" parent="g41afeXXm7fq4fGSFbC3-5" vertex="1">
          <mxGeometry x="390" y="40" width="20" height="20" as="geometry" />
        </mxCell>
        <mxCell id="73Q98SrHmq1DEnhKEfCo-16" value="&lt;font data-font-src=&quot;https://fonts.googleapis.com/css?family=Nunito&quot;&gt;ChunkFetchRequest&lt;/font&gt;" style="text;html=1;align=center;verticalAlign=middle;resizable=0;points=[];autosize=1;strokeColor=none;fontSize=20;fontFamily=Nunito;fontSource=https://fonts.googleapis.com/css?family=Nunito;" parent="g41afeXXm7fq4fGSFbC3-5" vertex="1">
          <mxGeometry x="140" width="200" height="30" as="geometry" />
        </mxCell>
      </root>
    </mxGraphModel>
  </diagram>
</mxfile>
